<svg xmlns="http://www.w3.org/2000/svg" width="17.118" height="22.824" viewBox="0 0 17.118 22.824">
  <path id="file-invoice-solid" d="M11.412,0V5.706h5.706Zm1.426,11.412H4.279v2.853h8.559ZM9.985,5.706V0H2.14A2.14,2.14,0,0,0,0,2.14V20.684a2.14,2.14,0,0,0,2.14,2.14H14.978a2.14,2.14,0,0,0,2.14-2.14V7.132H11.452A1.434,1.434,0,0,1,9.985,5.706ZM2.853,3.21a.359.359,0,0,1,.357-.357H6.776a.359.359,0,0,1,.357.357v.713a.358.358,0,0,1-.357.357H3.21a.359.359,0,0,1-.357-.357Zm0,2.853a.359.359,0,0,1,.357-.357H6.776a.358.358,0,0,1,.357.357v.713a.358.358,0,0,1-.357.357H3.21a.359.359,0,0,1-.357-.357ZM14.265,19.614a.359.359,0,0,1-.357.357H10.342a.358.358,0,0,1-.357-.357V18.9a.359.359,0,0,1,.357-.357h3.566a.359.359,0,0,1,.357.357Zm0-8.916v4.279a.711.711,0,0,1-.713.713H3.566a.71.71,0,0,1-.713-.713V10.7a.71.71,0,0,1,.713-.713h9.985A.71.71,0,0,1,14.265,10.7Z" fill="#363636"/>
</svg>
