<svg xmlns="http://www.w3.org/2000/svg" width="27" height="16.005" viewBox="0 0 27 16.005">
  <g id="Group_3813" data-name="Group 3813" transform="translate(-1630 -420)">
    <path id="Icon_awesome-link" data-name="Icon awesome-link" d="M10.126,5.748a4.71,4.71,0,0,1,.011,6.653l-.011.011L8.043,14.5A4.713,4.713,0,0,1,1.378,7.831l1.15-1.15a.5.5,0,0,1,.846.329,5.713,5.713,0,0,0,.3,1.635.5.5,0,0,1-.117.515l-.406.406a2.232,2.232,0,1,0,3.137,3.177l2.083-2.083a2.232,2.232,0,0,0,0-3.157,2.323,2.323,0,0,0-.321-.266.5.5,0,0,1-.215-.391A1.235,1.235,0,0,1,8.2,5.921l.653-.653a.5.5,0,0,1,.638-.054,4.728,4.728,0,0,1,.636.533Zm4.37-4.37a4.718,4.718,0,0,0-6.665,0L5.748,3.462l-.011.011a4.714,4.714,0,0,0,.647,7.186.5.5,0,0,0,.638-.054l.653-.653a1.235,1.235,0,0,0,.363-.924.5.5,0,0,0-.215-.391A2.323,2.323,0,0,1,7.5,8.372a2.232,2.232,0,0,1,0-3.157L9.585,3.132a2.232,2.232,0,1,1,3.137,3.177l-.406.406a.5.5,0,0,0-.117.515,5.713,5.713,0,0,1,.3,1.635.5.5,0,0,0,.846.329l1.15-1.15a4.718,4.718,0,0,0,0-6.665Z" transform="translate(1641.126 420.131)" fill="#757575"/>
    <rect id="Rectangle_6" data-name="Rectangle 6" width="11" height="2" rx="1" transform="translate(1635 420)" fill="#757575"/>
    <rect id="Rectangle_7" data-name="Rectangle 7" width="11" height="2" rx="1" transform="translate(1630 426)" fill="#757575"/>
    <rect id="Rectangle_8" data-name="Rectangle 8" width="6" height="2" rx="1" transform="translate(1634 432)" fill="#757575"/>
  </g>
</svg>
