<svg xmlns="http://www.w3.org/2000/svg" width="22.75" height="25.574" viewBox="0 0 22.75 25.574"><g transform="translate(10549.237 -1238.264)"><g transform="translate(-10549.237 1253.567)"><g transform="translate(0 0)"><g transform="translate(0 0)"><path class="mainPath" d="M12.463-.137,11-7.743l1.466-2.566h-4.4L9.531-7.743,8.064-1.511l-2.2-8.752A5.776,5.776,0,0,0,2.91-9.37,6.188,6.188,0,0,0,.779-7.147,5.94,5.94,0,0,0,0-4.169v1.924A2.121,2.121,0,0,0,.641-.687,2.121,2.121,0,0,0,2.2-.045l10.264.008C12.461-.063,12.45-.137,12.463-.137Z" transform="translate(0 10.309)" fill="#363636"/></g></g></g><path class="mainPath" d="M9.144,4a5.144,5.144,0,1,0,5.144,5.144A5.15,5.15,0,0,0,9.144,4ZM7.858,12.358,5.286,9.787l.907-.907,1.665,1.659L12.095,6.3,13,7.215Z" transform="translate(-10540.774 1249.551)" fill="#363636"/><path class="mainPath" d="M11.77-8.961a6.836,6.836,0,0,0,3.474-.916,6.707,6.707,0,0,0,2.5-2.5,6.836,6.836,0,0,0,.916-3.474,6.836,6.836,0,0,0-.916-3.474,6.707,6.707,0,0,0-2.5-2.5,6.836,6.836,0,0,0-3.474-.916,6.836,6.836,0,0,0-3.474.916,6.707,6.707,0,0,0-2.5,2.5,6.836,6.836,0,0,0-.916,3.474,6.836,6.836,0,0,0,.916,3.474,6.707,6.707,0,0,0,2.5,2.5A6.836,6.836,0,0,0,11.77-8.961Z" transform="translate(-10550.71 1261.015)" fill="#363636"/></g></svg>