<svg id="Group_154" data-name="Group 154" xmlns="http://www.w3.org/2000/svg" xmlns:xlink="http://www.w3.org/1999/xlink" width="21" height="16.03" viewBox="0 0 21 16.03">
  <defs>
    <clipPath id="clip-path">
      <rect id="Rectangle_100" data-name="Rectangle 100" width="21" height="16.03" fill="#9ca3af"/>
    </clipPath>
  </defs>
  <g id="Group_153" data-name="Group 153" clip-path="url(#clip-path)">
    <path id="Path_311" data-name="Path 311" d="M86.716,208.744a2.826,2.826,0,0,1,.535-1.237,2.6,2.6,0,0,1,1.9-1.025c.64-.051,1.282-.011,1.922-.023.167,0,.24.052.259.242a2.367,2.367,0,0,0,.654,1.428c.092.1.1.138-.041.191a3.1,3.1,0,0,0-2.089,3.007c0,.153,0,.306,0,.46,0,.094-.042.133-.137.126a13,13,0,0,1-2.962-.588.256.256,0,0,1-.045-.025Z" transform="translate(-83.179 -198.036)" fill="#9ca3af"/>
    <path id="Path_312" data-name="Path 312" d="M175.011,262.211c.02-.369-.03-.817.034-1.264a2.659,2.659,0,0,1,2.2-2.177,21.522,21.522,0,0,1,2.176-.037,2.5,2.5,0,0,1,.705.1,2.649,2.649,0,0,1,1.934,2.375c.043.72.007,1.441.023,2.161a.237.237,0,0,1-.167.243,6.742,6.742,0,0,1-2.033.527,9.438,9.438,0,0,1-1.851.038,12.312,12.312,0,0,1-2.539-.459c-.479-.141-.477-.145-.477-.641Z" transform="translate(-167.874 -248.171)" fill="#9ca3af"/>
    <path id="Path_313" data-name="Path 313" d="M310.429,210.054c0,.4-.006.722,0,1.046a.255.255,0,0,1-.179.27,6.689,6.689,0,0,1-1.868.5c-.242.032-.485.044-.728.071-.148.017-.2-.04-.2-.19a4.817,4.817,0,0,0-.06-1.119,3.075,3.075,0,0,0-1.96-2.272c-.216-.087-.216-.079-.059-.257a2.363,2.363,0,0,0,.612-1.411c.011-.155.064-.222.227-.217.584.018,1.168-.013,1.753.024a2.665,2.665,0,0,1,2.4,2.122,8.718,8.718,0,0,1,.061,1.437" transform="translate(-292.815 -198.051)" fill="#9ca3af"/>
    <path id="Path_314" data-name="Path 314" d="M393.823,159.043c0,.431-.008.784,0,1.135a.269.269,0,0,1-.195.292,6.9,6.9,0,0,1-1.82.482,7.648,7.648,0,0,1-.762.071c-.134,0-.18-.043-.18-.176a4.819,4.819,0,0,0-.064-1.119,3.079,3.079,0,0,0-1.951-2.281c-.225-.091-.224-.082-.062-.269a2.428,2.428,0,0,0,.611-1.448c.008-.11.043-.172.16-.17a16.2,16.2,0,0,1,2.074.054,2.662,2.662,0,0,1,2.15,2.163,12.555,12.555,0,0,1,.033,1.264" transform="translate(-372.827 -149.212)" fill="#9ca3af"/>
    <path id="Path_315" data-name="Path 315" d="M208.09,2.254A2.256,2.256,0,1,1,205.833,0a2.26,2.26,0,0,1,2.257,2.253" transform="translate(-195.275 -0.001)" fill="#9ca3af"/>
    <path id="Path_316" data-name="Path 316" d="M212.578,158.612a2.074,2.074,0,1,1,.029-4.148,2.074,2.074,0,1,1-.029,4.148" transform="translate(-201.924 -148.165)" fill="#9ca3af"/>
    <path id="Path_317" data-name="Path 317" d="M123.99,106.5a2.088,2.088,0,0,1-2.1-2.02,2.065,2.065,0,0,1,1.852-2.124,2.088,2.088,0,0,1,2.306,1.961.375.375,0,0,1-.137.341,2.431,2.431,0,0,0-.8,1.356.326.326,0,0,1-.184.243,2.2,2.2,0,0,1-.937.243" transform="translate(-116.915 -98.166)" fill="#9ca3af"/>
    <path id="Path_318" data-name="Path 318" d="M379.563,55.538a2.2,2.2,0,0,1-.732-.137.24.24,0,0,1-.175-.205,2.482,2.482,0,0,0-1.072-1.691.211.211,0,0,1-.089-.22,2.079,2.079,0,1,1,2.069,2.253" transform="translate(-362.096 -49.284)" fill="#9ca3af"/>
    <path id="Path_319" data-name="Path 319" d="M298.569,104.3a2.085,2.085,0,0,1-2.726,1.97.356.356,0,0,1-.282-.309,2.417,2.417,0,0,0-1.018-1.593.251.251,0,0,1-.12-.239,2.076,2.076,0,0,1,4.146.171" transform="translate(-282.415 -98.041)" fill="#9ca3af"/>
    <path id="Path_320" data-name="Path 320" d="M224.691,113.675c-.014.025-.028.056-.046.084a2.223,2.223,0,0,0-.351,1c-.012.143-.053.193-.213.135a2.363,2.363,0,0,0-1.8.074c-.184.08-.193.074-.208-.128a2.337,2.337,0,0,0-.355-1.07c-.1-.156-.09-.158.094-.195a3.123,3.123,0,0,1,.61-.029q.91,0,1.819,0a3.212,3.212,0,0,1,.371.037c.044.006.093.016.082.088" transform="translate(-212.613 -108.916)" fill="#9ca3af"/>
    <path id="Path_321" data-name="Path 321" d="M0,158.043c0,.431.008.784,0,1.135a.269.269,0,0,0,.195.292,6.9,6.9,0,0,0,1.82.482,7.644,7.644,0,0,0,.762.071c.134,0,.18-.043.18-.176a4.817,4.817,0,0,1,.064-1.119,3.079,3.079,0,0,1,1.951-2.281c.225-.091.224-.082.062-.269a2.428,2.428,0,0,1-.611-1.448c-.008-.11-.043-.172-.16-.17a16.2,16.2,0,0,0-2.074.054,2.663,2.663,0,0,0-2.15,2.163A12.535,12.535,0,0,0,0,158.043" transform="translate(0 -148.253)" fill="#9ca3af"/>
    <path id="Path_322" data-name="Path 322" d="M37.625,54.538a2.2,2.2,0,0,0,.732-.137.24.24,0,0,0,.175-.205A2.483,2.483,0,0,1,39.6,52.5a.21.21,0,0,0,.089-.22,2.079,2.079,0,1,0-2.069,2.253" transform="translate(-34.091 -48.325)" fill="#9ca3af"/>
  </g>
</svg>
