<svg id="Group_3782" data-name="Group 3782" xmlns="http://www.w3.org/2000/svg" xmlns:xlink="http://www.w3.org/1999/xlink" width="21.822" height="21.815" viewBox="0 0 21.822 21.815">
  <defs>
    <clipPath id="clip-path">
      <rect id="Rectangle_2844" data-name="Rectangle 2844" width="21.822" height="21.815" fill="#363636"/>
    </clipPath>
  </defs>
  <g id="Group_3781" data-name="Group 3781" clip-path="url(#clip-path)">
    <path id="Path_746" data-name="Path 746" d="M145.515,61.282c-.469-.068-.942-.111-1.406-.208a.682.682,0,0,1-.621-.771.66.66,0,0,1,.8-.548,9.873,9.873,0,0,0,2.453.2,9.159,9.159,0,0,0,5.318-1.973A9.551,9.551,0,0,0,154.1,44.906a2.413,2.413,0,0,0-.346-.415c.013.143.033.285.037.428a.655.655,0,0,1-1.3.125c-.118-.77-.227-1.542-.334-2.314a.9.9,0,0,1,.026-.462.645.645,0,0,1,.757-.407q1.318.24,2.63.509a.655.655,0,0,1-.173,1.3,3.676,3.676,0,0,1-.42-.061.238.238,0,0,0-.15-.007c-.008.087.065.133.108.19a11.056,11.056,0,0,1,2.182,5.619,1.037,1.037,0,0,0,.028.124v1.746a1.128,1.128,0,0,0-.038.315,10.712,10.712,0,0,1-1.965,5.083,10.865,10.865,0,0,1-6.578,4.377c-.5.114-1.005.164-1.51.231Z" transform="translate(-135.316 -39.467)" fill="#363636"/>
    <path id="Path_747" data-name="Path 747" d="M77.362,74.172A6.958,6.958,0,0,1,84.344,79.5a6.674,6.674,0,0,1-2.954,7.019,6.962,6.962,0,0,1-3.765,1.112,6.85,6.85,0,0,1-6.843-5.663,6.717,6.717,0,0,1,4.811-7.5,7.066,7.066,0,0,1,1.768-.293m.086,7.334a8.305,8.305,0,0,1,.977.024.716.716,0,0,1,.616.726.7.7,0,0,1-.717.669c-.454,0-.908-.006-1.362,0a1.367,1.367,0,0,1-.769-.192.607.607,0,0,0-.855.19.633.633,0,0,0,.23.869,2.255,2.255,0,0,0,1.2.374c.162.006.21.071.2.22a3.759,3.759,0,0,0,0,.447.624.624,0,0,0,.366.558.57.57,0,0,0,.6-.056.751.751,0,0,0,.275-.7c-.005-.448,0-.447.433-.508.035,0,.07-.013.1-.021a1.928,1.928,0,0,0,1.5-2.1,1.955,1.955,0,0,0-1.929-1.725c-.461,0-.922,0-1.383,0a.731.731,0,0,1-.8-.7.746.746,0,0,1,.807-.721c.39,0,.78,0,1.17,0a1.211,1.211,0,0,1,.889.337.62.62,0,0,0,.9,0,.643.643,0,0,0-.058-.9,2.175,2.175,0,0,0-1.417-.653c-.164-.012-.228-.069-.218-.233a3.535,3.535,0,0,0,0-.447.621.621,0,0,0-1.242,0,2.533,2.533,0,0,0,0,.4c.019.2-.059.263-.261.279a1.91,1.91,0,0,0-1.786,1.75,1.937,1.937,0,0,0,1.524,2.068,5.488,5.488,0,0,0,1,.037" transform="translate(-66.673 -69.953)" fill="#363636"/>
    <path id="Path_748" data-name="Path 748" d="M3.415,16.85c-.018-.208-.041-.363-.042-.517a.653.653,0,0,1,1.293-.142c.129.826.252,1.653.349,2.483a.654.654,0,0,1-.853.751c-.529-.1-1.057-.205-1.586-.308-.32-.062-.642-.117-.96-.187a.657.657,0,0,1,.2-1.3c.174.014.347.054.526.083,0-.1-.067-.15-.11-.208A10.888,10.888,0,0,1,5.713,1.328,10.758,10.758,0,0,1,11.4.011a10.235,10.235,0,0,1,1.685.22.665.665,0,1,1-.264,1.3,9.164,9.164,0,0,0-6.164.811A9.416,9.416,0,0,0,1.465,9.407a9.339,9.339,0,0,0,1.794,7.255c.037.051.08.1.156.187" transform="translate(-0.001 0)" fill="#363636"/>
  </g>
</svg>
