<svg id="human-resources" xmlns="http://www.w3.org/2000/svg" width="53.084" height="53.084" viewBox="0 0 53.084 53.084">
  <g id="Group_1641" data-name="Group 1641">
    <g id="Group_1640" data-name="Group 1640">
      <path id="Path_1283" data-name="Path 1283" d="M25.436,0H23.224C17.1,0,12.165,6.05,12.165,11.059v6.635c0,4.313,2.516,9.843,6.635,11.8V30.2C16.036,31.257,6.287,35.03,3.81,36.681A8.23,8.23,0,0,0,0,43.131v9.953H2.212V43.131a6.019,6.019,0,0,1,2.823-4.605c2.1-1.4,10.9-4.882,15.262-6.525a1.106,1.106,0,0,0,.715-1.035V28.754a1.106,1.106,0,0,0-.737-1.042c-3.477-1.232-5.9-6.267-5.9-10.017V11.059c0-3.981,4.082-8.847,8.847-8.847h2.212c4.765,0,8.847,4.866,8.847,8.847v3.318H36.5V11.059C36.5,6.05,31.563,0,25.436,0Z" fill="#d03827"/>
    </g>
  </g>
  <g id="Group_1643" data-name="Group 1643" transform="translate(8.847 43.131)">
    <g id="Group_1642" data-name="Group 1642">
      <rect id="Rectangle_1717" data-name="Rectangle 1717" width="2.212" height="9.953" fill="#d03827"/>
    </g>
  </g>
  <g id="Group_1645" data-name="Group 1645" transform="translate(30.966 16.589)">
    <g id="Group_1644" data-name="Group 1644">
      <path id="Path_1284" data-name="Path 1284" d="M309.726,160h-8.847a2.212,2.212,0,0,0-2.212,2.212v4.424a2.212,2.212,0,0,0,2.212,2.212h8.847a2.212,2.212,0,0,0,2.212-2.212v-4.424A2.212,2.212,0,0,0,309.726,160Zm0,6.635h-8.847v-4.424h8.847Z" transform="translate(-298.667 -160)" fill="#d03827"/>
    </g>
  </g>
  <g id="Group_1647" data-name="Group 1647" transform="translate(30.966 27.648)">
    <g id="Group_1646" data-name="Group 1646">
      <path id="Path_1285" data-name="Path 1285" d="M309.726,266.667h-8.847a2.212,2.212,0,0,0-2.212,2.212V273.3a2.212,2.212,0,0,0,2.212,2.212h8.847a2.212,2.212,0,0,0,2.212-2.212v-4.424A2.212,2.212,0,0,0,309.726,266.667Zm0,6.635h-8.847v-4.424h8.847Z" transform="translate(-298.667 -266.667)" fill="#d03827"/>
    </g>
  </g>
  <g id="Group_1649" data-name="Group 1649" transform="translate(39.813 44.237)">
    <g id="Group_1648" data-name="Group 1648">
      <path id="Path_1286" data-name="Path 1286" d="M395.059,426.667h-8.847A2.212,2.212,0,0,0,384,428.879V433.3a2.212,2.212,0,0,0,2.212,2.212h8.847a2.212,2.212,0,0,0,2.212-2.212v-4.424A2.212,2.212,0,0,0,395.059,426.667Zm0,6.635h-8.847v-4.424h8.847Z" transform="translate(-384 -426.667)" fill="#d03827"/>
    </g>
  </g>
  <g id="Group_1651" data-name="Group 1651" transform="translate(22.118 44.237)">
    <g id="Group_1650" data-name="Group 1650">
      <path id="Path_1287" data-name="Path 1287" d="M224.393,426.667h-8.847a2.212,2.212,0,0,0-2.212,2.212V433.3a2.212,2.212,0,0,0,2.212,2.212h8.847A2.212,2.212,0,0,0,226.6,433.3v-4.424A2.212,2.212,0,0,0,224.393,426.667Zm0,6.635h-8.847v-4.424h8.847Z" transform="translate(-213.334 -426.667)" fill="#d03827"/>
    </g>
  </g>
  <g id="Group_1653" data-name="Group 1653" transform="translate(36.495 24.33)">
    <g id="Group_1652" data-name="Group 1652">
      <rect id="Rectangle_1718" data-name="Rectangle 1718" width="2.212" height="4.424" fill="#d03827"/>
    </g>
  </g>
  <g id="Group_1655" data-name="Group 1655" transform="translate(27.648 38.707)">
    <g id="Group_1654" data-name="Group 1654">
      <path id="Path_1288" data-name="Path 1288" d="M285.467,373.333H267.772a1.106,1.106,0,0,0-1.106,1.106v5.53h2.212v-4.424h15.483v5.53h2.212v-6.635A1.106,1.106,0,0,0,285.467,373.333Z" transform="translate(-266.666 -373.333)" fill="#d03827"/>
    </g>
  </g>
  <g id="Group_1657" data-name="Group 1657" transform="translate(36.495 35.389)">
    <g id="Group_1656" data-name="Group 1656">
      <rect id="Rectangle_1719" data-name="Rectangle 1719" width="2.212" height="4.424" fill="#d03827"/>
    </g>
  </g>
  <g id="Group_1659" data-name="Group 1659" transform="translate(22.118 38.707)">
    <g id="Group_1658" data-name="Group 1658">
      <rect id="Rectangle_1720" data-name="Rectangle 1720" width="2.212" height="2.212" fill="#d03827"/>
    </g>
  </g>
  <g id="Group_1661" data-name="Group 1661" transform="translate(17.695 38.707)">
    <g id="Group_1660" data-name="Group 1660">
      <rect id="Rectangle_1721" data-name="Rectangle 1721" width="2.212" height="2.212" fill="#d03827"/>
    </g>
  </g>
</svg>
