<svg id="target" xmlns="http://www.w3.org/2000/svg" width="94.067" height="94.066" viewBox="0 0 94.067 94.066">
  <g id="Group_1702" data-name="Group 1702" transform="translate(18.28 22.215)">
    <g id="Group_1701" data-name="Group 1701">
      <path id="Path_1323" data-name="Path 1323" d="M155.628,155.928a1.378,1.378,0,0,0,1.378-1.378v-1.47a11.692,11.692,0,0,0-6.69-10.558,8.356,8.356,0,1,0-11.964-11.294c0-.07.005-.14.005-.211a10.1,10.1,0,0,0-20.21,0c0,.071,0,.141.005.211a8.356,8.356,0,1,0-11.959,11.3,11.612,11.612,0,0,0-1.144.618,1.378,1.378,0,1,0,1.447,2.346,8.923,8.923,0,0,1,8.669-.374,15.988,15.988,0,0,0-2.989,9.326v7.549h-9.921v-8.911a8.826,8.826,0,0,1,.88-3.868,1.378,1.378,0,0,0-2.482-1.2,11.562,11.562,0,0,0-1.154,5.066v10.289a1.378,1.378,0,0,0,1.378,1.378h11.3v4.393a1.378,1.378,0,0,0,1.378,1.378h2.94a1.378,1.378,0,0,0,0-2.756h-1.562v-13.32a13.32,13.32,0,0,1,26.64,0v13.32H122.4a1.378,1.378,0,0,0,0,2.756h20.546a1.378,1.378,0,0,0,1.378-1.378v-4.393h11.3a1.378,1.378,0,0,0,1.378-1.378v-2.94a1.378,1.378,0,1,0-2.756,0v1.562h-9.921v-7.549a15.988,15.988,0,0,0-2.989-9.326,8.912,8.912,0,0,1,12.91,7.964v1.47A1.378,1.378,0,0,0,155.628,155.928Zm-44.461-14.514a5.6,5.6,0,1,1,5.6-5.6A5.61,5.61,0,0,1,111.166,141.414ZM117,142.976q-.421-.244-.858-.451a8.353,8.353,0,0,0,3.379-6.435,10.181,10.181,0,0,0,3.085,3.3A16.118,16.118,0,0,0,117,142.976Zm11.255-4.609a7.349,7.349,0,1,1,7.349-7.349A7.357,7.357,0,0,1,128.253,138.367Zm11.255,4.609a16.118,16.118,0,0,0-5.606-3.584,10.181,10.181,0,0,0,3.085-3.3,8.352,8.352,0,0,0,3.379,6.435Q139.929,142.732,139.508,142.976Zm5.831-1.562a5.6,5.6,0,1,1,5.6-5.6A5.61,5.61,0,0,1,145.339,141.414Z" transform="translate(-99.5 -120.913)" fill="#d03827"/>
    </g>
  </g>
  <g id="Group_1704" data-name="Group 1704" transform="translate(0 7.441)">
    <g id="Group_1703" data-name="Group 1703">
      <path id="Path_1324" data-name="Path 1324" d="M14.422,40.5H6.89A6.9,6.9,0,0,0,0,47.39v7.533a4.134,4.134,0,1,0,8.268,0V48.768h6.155a4.134,4.134,0,0,0,0-8.268Zm0,5.512H6.89A1.378,1.378,0,0,0,5.512,47.39v7.533a1.378,1.378,0,0,1-2.756,0V47.39A4.138,4.138,0,0,1,6.89,43.256h7.533a1.378,1.378,0,0,1,0,2.756Z" transform="translate(0 -40.5)" fill="#d03827"/>
    </g>
  </g>
  <g id="Group_1706" data-name="Group 1706" transform="translate(75.51 7.441)">
    <g id="Group_1705" data-name="Group 1705">
      <path id="Path_1325" data-name="Path 1325" d="M422.666,40.5h-7.533a4.134,4.134,0,1,0,0,8.268h6.155v6.155a4.134,4.134,0,1,0,8.268,0V47.39A6.9,6.9,0,0,0,422.666,40.5ZM426.8,54.922a1.378,1.378,0,0,1-2.756,0V47.39a1.378,1.378,0,0,0-1.378-1.378h-7.533a1.378,1.378,0,1,1,0-2.756h7.533A4.138,4.138,0,0,1,426.8,47.39Z" transform="translate(-411 -40.5)" fill="#d03827"/>
    </g>
  </g>
  <g id="Group_1708" data-name="Group 1708" transform="translate(75.51 68.07)">
    <g id="Group_1707" data-name="Group 1707">
      <path id="Path_1326" data-name="Path 1326" d="M425.422,370.5a4.138,4.138,0,0,0-4.134,4.134v6.155h-6.155a4.134,4.134,0,0,0,0,8.268h7.533a6.9,6.9,0,0,0,6.89-6.89v-7.533A4.138,4.138,0,0,0,425.422,370.5Zm1.378,11.666a4.138,4.138,0,0,1-4.134,4.134h-7.533a1.378,1.378,0,1,1,0-2.756h7.533a1.378,1.378,0,0,0,1.378-1.378v-7.533a1.378,1.378,0,0,1,2.756,0Z" transform="translate(-411 -370.5)" fill="#d03827"/>
    </g>
  </g>
  <g id="Group_1710" data-name="Group 1710" transform="translate(0 68.07)">
    <g id="Group_1709" data-name="Group 1709">
      <path id="Path_1327" data-name="Path 1327" d="M14.422,380.789H8.268v-6.155a4.134,4.134,0,0,0-8.268,0v7.533a6.9,6.9,0,0,0,6.89,6.89h7.533a4.134,4.134,0,0,0,0-8.268Zm0,5.512H6.89a4.138,4.138,0,0,1-4.134-4.134v-7.533a1.378,1.378,0,0,1,2.756,0v7.533a1.378,1.378,0,0,0,1.378,1.378h7.533a1.378,1.378,0,1,1,0,2.756Z" transform="translate(0 -370.5)" fill="#d03827"/>
    </g>
  </g>
  <g id="Group_1712" data-name="Group 1712" transform="translate(42.899)">
    <g id="Group_1711" data-name="Group 1711">
      <path id="Path_1328" data-name="Path 1328" d="M237.634,0A4.138,4.138,0,0,0,233.5,4.134v7.349a4.134,4.134,0,0,0,8.268,0V4.134A4.138,4.138,0,0,0,237.634,0Zm1.378,11.483a1.378,1.378,0,0,1-2.756,0V4.134a1.378,1.378,0,0,1,2.756,0Z" transform="translate(-233.5)" fill="#d03827"/>
    </g>
  </g>
  <g id="Group_1714" data-name="Group 1714" transform="translate(42.899 78.45)">
    <g id="Group_1713" data-name="Group 1713">
      <path id="Path_1329" data-name="Path 1329" d="M237.634,427a4.138,4.138,0,0,0-4.134,4.134v7.349a4.134,4.134,0,1,0,8.268,0v-7.349A4.138,4.138,0,0,0,237.634,427Zm1.378,11.483a1.378,1.378,0,1,1-2.756,0v-7.349a1.378,1.378,0,0,1,2.756,0Z" transform="translate(-233.5 -427)" fill="#d03827"/>
    </g>
  </g>
  <g id="Group_1716" data-name="Group 1716" transform="translate(78.45 42.899)">
    <g id="Group_1715" data-name="Group 1715">
      <path id="Path_1330" data-name="Path 1330" d="M438.483,233.5h-7.349a4.134,4.134,0,1,0,0,8.268h7.349a4.134,4.134,0,1,0,0-8.268Zm0,5.512h-7.349a1.378,1.378,0,0,1,0-2.756h7.349a1.378,1.378,0,1,1,0,2.756Z" transform="translate(-427 -233.5)" fill="#d03827"/>
    </g>
  </g>
  <g id="Group_1718" data-name="Group 1718" transform="translate(0 42.899)">
    <g id="Group_1717" data-name="Group 1717">
      <path id="Path_1331" data-name="Path 1331" d="M11.483,233.5H4.134a4.134,4.134,0,0,0,0,8.268h7.349a4.134,4.134,0,0,0,0-8.268Zm0,5.512H4.134a1.378,1.378,0,0,1,0-2.756h7.349a1.378,1.378,0,0,1,0,2.756Z" transform="translate(0 -233.5)" fill="#d03827"/>
    </g>
  </g>
  <g id="Group_1720" data-name="Group 1720" transform="translate(39.179 51.013)">
    <g id="Group_1719" data-name="Group 1719">
      <path id="Path_1332" data-name="Path 1332" d="M228.826,277.907a1.378,1.378,0,0,0-1.918.346l-5.95,8.571L215.6,281.5a1.378,1.378,0,1,0-1.943,1.954l6.525,6.484a1.377,1.377,0,0,0,.971.4c.042,0,.083,0,.125-.006a1.378,1.378,0,0,0,1.007-.586l6.887-9.921A1.378,1.378,0,0,0,228.826,277.907Z" transform="translate(-213.251 -277.661)" fill="#d03827"/>
    </g>
  </g>
</svg>
