<svg xmlns="http://www.w3.org/2000/svg" width="17.233" height="15.315" viewBox="0 0 17.233 15.315">
  <path id="Icon_awesome-edit" data-name="Icon awesome-edit" d="M12.045,2.493l2.7,2.7a.293.293,0,0,1,0,.413L8.21,12.139l-2.776.308A.582.582,0,0,1,4.79,11.8L5.1,9.028l6.534-6.534A.293.293,0,0,1,12.045,2.493Zm4.847-.685L15.432.348a1.17,1.17,0,0,0-1.652,0L12.722,1.407a.293.293,0,0,0,0,.413l2.7,2.7a.293.293,0,0,0,.413,0L16.892,3.46a1.17,1.17,0,0,0,0-1.652Zm-5.4,8.554v3.046H1.915V3.834H8.79a.368.368,0,0,0,.254-.1l1.2-1.2a.359.359,0,0,0-.254-.613H1.436A1.436,1.436,0,0,0,0,3.355V13.886a1.436,1.436,0,0,0,1.436,1.436H11.968A1.436,1.436,0,0,0,13.4,13.886V9.165a.36.36,0,0,0-.613-.254l-1.2,1.2A.368.368,0,0,0,11.489,10.362Z" transform="translate(0 -0.007)" fill="#757575"/>
</svg>
