<svg xmlns="http://www.w3.org/2000/svg" width="17.118" height="17.118" viewBox="0 0 17.118 17.118">
  <path class="mainPath" id="up-right-from-square-solid" d="M12.839,10.7a1.07,1.07,0,0,0-1.07,1.07v3.21H2.14V5.349h3.21a1.07,1.07,0,1,0,0-2.14H2.14A2.14,2.14,0,0,0,0,5.349v9.629a2.14,2.14,0,0,0,2.14,2.14h9.629a2.14,2.14,0,0,0,2.14-2.14v-3.21A1.069,1.069,0,0,0,12.839,10.7ZM16.316,0H11.769a1.07,1.07,0,0,0-.756,1.826L12.4,3.21,5.664,9.943a1.069,1.069,0,1,0,1.512,1.512l6.733-6.731,1.383,1.383a1.07,1.07,0,0,0,1.826-.758V.8A.8.8,0,0,0,16.316,0Z" fill="#363636"/>
</svg>
