<svg id="receipt" xmlns="http://www.w3.org/2000/svg" width="53.168" height="53.168" viewBox="0 0 53.168 53.168">
  <g id="Group_1663" data-name="Group 1663" transform="translate(31.015 5.538)">
    <g id="Group_1662" data-name="Group 1662">
      <path id="Path_1289" data-name="Path 1289" d="M307.528,53.333a8.861,8.861,0,1,0,8.861,8.861A8.861,8.861,0,0,0,307.528,53.333Zm0,15.507a6.646,6.646,0,1,1,6.646-6.646A6.646,6.646,0,0,1,307.528,68.84Z" transform="translate(-298.667 -53.333)" fill="#d03827"/>
    </g>
  </g>
  <g id="Group_1665" data-name="Group 1665" transform="translate(35.77 11.401)">
    <g id="Group_1664" data-name="Group 1664">
      <path id="Path_1290" data-name="Path 1290" d="M351.105,109.792l-3.648,3.647-1.432-1.432-1.566,1.566,2.215,2.215a1.107,1.107,0,0,0,1.566,0l4.431-4.431Z" transform="translate(-344.459 -109.792)" fill="#d03827"/>
    </g>
  </g>
  <g id="Group_1667" data-name="Group 1667" transform="translate(22.153 28.799)">
    <g id="Group_1666" data-name="Group 1666">
      <rect id="Rectangle_1722" data-name="Rectangle 1722" width="15.507" height="2.215" fill="#d03827"/>
    </g>
  </g>
  <g id="Group_1669" data-name="Group 1669" transform="translate(4.431 13.292)">
    <g id="Group_1668" data-name="Group 1668">
      <path id="Path_1291" data-name="Path 1291" d="M62.6,128H50.42a7.763,7.763,0,0,0-7.754,7.754h2.215a5.545,5.545,0,0,1,5.538-5.538H62.6a2.215,2.215,0,0,1,0,4.431H50.42v2.215H62.6a4.431,4.431,0,0,0,0-8.861Z" transform="translate(-42.666 -128)" fill="#d03827"/>
    </g>
  </g>
  <g id="Group_1671" data-name="Group 1671" transform="translate(0 17.723)">
    <g id="Group_1670" data-name="Group 1670">
      <path id="Path_1292" data-name="Path 1292" d="M1.108,170.667A1.108,1.108,0,0,0,0,171.775v1.108H5.538v-2.215Z" transform="translate(0 -170.667)" fill="#d03827"/>
    </g>
  </g>
  <g id="Group_1673" data-name="Group 1673" transform="translate(15.507 21.046)">
    <g id="Group_1672" data-name="Group 1672">
      <path id="Path_1293" data-name="Path 1293" d="M184.779,213.743V229.25a3.323,3.323,0,0,1-3.323,3.323H154.872a3.323,3.323,0,0,1-3.323-3.323V202.666h-2.215V229.25a5.545,5.545,0,0,0,5.538,5.538h26.584a5.545,5.545,0,0,0,5.538-5.538V213.743Z" transform="translate(-149.334 -202.666)" fill="#d03827"/>
    </g>
  </g>
  <g id="Group_1675" data-name="Group 1675" transform="translate(15.832)">
    <g id="Group_1674" data-name="Group 1674">
      <path id="Path_1294" data-name="Path 1294" d="M184.257,0H162.1a1.108,1.108,0,0,0-.783.325l-8.861,8.861,1.566,1.566,8.537-8.537h21.695a3.323,3.323,0,0,1,3.323,3.323V21.046h2.215V5.538A5.545,5.545,0,0,0,184.257,0Z" transform="translate(-152.459)" fill="#d03827"/>
    </g>
  </g>
  <g id="Group_1677" data-name="Group 1677" transform="translate(15.507 0)">
    <g id="Group_1676" data-name="Group 1676">
      <path id="Path_1295" data-name="Path 1295" d="M160.086.327a1.108,1.108,0,0,0-1.566,0l-8.861,8.861a1.107,1.107,0,0,0-.325.783V14.4h2.215V10.43L158.2,3.784V7.756a1.108,1.108,0,0,1-1.108,1.108h-2.215v2.215h2.215a3.323,3.323,0,0,0,3.323-3.323V1.11A1.108,1.108,0,0,0,160.086.327Z" transform="translate(-149.334 -0.003)" fill="#d03827"/>
    </g>
  </g>
  <g id="Group_1679" data-name="Group 1679" transform="translate(4.431 29.907)">
    <g id="Group_1678" data-name="Group 1678">
      <path id="Path_1296" data-name="Path 1296" d="M44.882,288H42.667a7.763,7.763,0,0,0,7.754,7.754v-2.215A5.545,5.545,0,0,1,44.882,288Z" transform="translate(-42.667 -288)" fill="#d03827"/>
    </g>
  </g>
  <g id="Group_1681" data-name="Group 1681" transform="translate(12.184 35.445)">
    <g id="Group_1680" data-name="Group 1680">
      <rect id="Rectangle_1723" data-name="Rectangle 1723" width="4.431" height="2.215" fill="#d03827"/>
    </g>
  </g>
  <g id="Group_1683" data-name="Group 1683" transform="translate(0 31.015)">
    <g id="Group_1682" data-name="Group 1682">
      <path id="Path_1297" data-name="Path 1297" d="M0,298.667v1.108a1.108,1.108,0,0,0,1.108,1.108H5.538v-2.215Z" transform="translate(0 -298.667)" fill="#d03827"/>
    </g>
  </g>
  <g id="Group_1685" data-name="Group 1685" transform="translate(31.873 23.293)">
    <g id="Group_1684" data-name="Group 1684">
      <path id="Path_1298" data-name="Path 1298" d="M327.268,225.239a3.361,3.361,0,0,0-4.64,0l-15.369,15.369a1.108,1.108,0,0,0,0,1.566l3.074,3.074a1.107,1.107,0,0,0,1.566,0l15.369-15.369,0,0A3.28,3.28,0,0,0,327.268,225.239Zm-1.566,3.074L311.116,242.9l-1.508-1.507,14.586-14.586a1.091,1.091,0,0,1,1.508,0h0A1.066,1.066,0,0,1,325.7,228.313Z" transform="translate(-306.935 -224.31)" fill="#d03827"/>
    </g>
  </g>
  <g id="Group_1687" data-name="Group 1687" transform="translate(28.799 39.876)">
    <g id="Group_1686" data-name="Group 1686">
      <path id="Path_1299" data-name="Path 1299" d="M284.085,386.582l-3.172,1.585,1.588-3.176L280.52,384l-3.075,6.151a1.108,1.108,0,0,0,.991,1.6,1.12,1.12,0,0,0,.5-.111l6.151-3.079Z" transform="translate(-277.328 -384)" fill="#d03827"/>
    </g>
  </g>
  <g id="Group_1689" data-name="Group 1689" transform="translate(43.725 28.067)">
    <g id="Group_1688" data-name="Group 1688" transform="translate(0 0)">
      <rect id="Rectangle_1724" data-name="Rectangle 1724" width="2.215" height="4.346" transform="matrix(0.707, -0.707, 0.707, 0.707, 0, 1.566)" fill="#d03827"/>
    </g>
  </g>
  <g id="Group_1691" data-name="Group 1691" transform="translate(22.153 45.414)">
    <g id="Group_1690" data-name="Group 1690">
      <rect id="Rectangle_1725" data-name="Rectangle 1725" width="7.754" height="2.215" fill="#d03827"/>
    </g>
  </g>
  <g id="Group_1693" data-name="Group 1693" transform="translate(22.153 39.876)">
    <g id="Group_1692" data-name="Group 1692">
      <rect id="Rectangle_1726" data-name="Rectangle 1726" width="6.646" height="2.215" fill="#d03827"/>
    </g>
  </g>
  <g id="Group_1695" data-name="Group 1695" transform="translate(22.153 34.338)">
    <g id="Group_1694" data-name="Group 1694">
      <rect id="Rectangle_1727" data-name="Rectangle 1727" width="9.969" height="2.215" fill="#d03827"/>
    </g>
  </g>
  <g id="Group_1697" data-name="Group 1697" transform="translate(36.553 45.414)">
    <g id="Group_1696" data-name="Group 1696">
      <rect id="Rectangle_1728" data-name="Rectangle 1728" width="9.969" height="2.215" fill="#d03827"/>
    </g>
  </g>
  <g id="Group_1699" data-name="Group 1699" transform="translate(42.091 39.876)">
    <g id="Group_1698" data-name="Group 1698">
      <rect id="Rectangle_1729" data-name="Rectangle 1729" width="4.431" height="2.215" fill="#d03827"/>
    </g>
  </g>
</svg>
