<svg xmlns="http://www.w3.org/2000/svg" width="27.453" height="36.031" viewBox="0 0 27.453 36.031">
  <path id="lock_FILL1_wght400_GRAD0_opsz48" d="M162.574,172.031A2.581,2.581,0,0,1,160,169.458V150.841a2.581,2.581,0,0,1,2.574-2.574h3V144.15a8.15,8.15,0,1,1,16.3,0v4.118h3a2.581,2.581,0,0,1,2.574,2.574v18.616a2.581,2.581,0,0,1-2.574,2.574Zm11.16-8.579a3.21,3.21,0,0,0,2.331-.945,3.066,3.066,0,0,0,.965-2.272,3.364,3.364,0,0,0-.972-2.338,3.118,3.118,0,0,0-4.668,0,3.4,3.4,0,0,0-.965,2.359,3.03,3.03,0,0,0,.972,2.252A3.237,3.237,0,0,0,173.734,163.452Zm-5.584-15.185H179.3V144.15a5.576,5.576,0,1,0-11.153,0Z" transform="translate(-160 -136)" fill="#d03827"/>
</svg>
