<svg xmlns="http://www.w3.org/2000/svg" width="21" height="19.464" viewBox="0 0 21 19.464">
  <g id="Layer_1-2" transform="translate(0.01 0.003)">
    <path id="Path_323" data-name="Path 323" d="M-.01,14.314a9.679,9.679,0,0,1,.328-1.282,4.594,4.594,0,0,1,3.709-2.983,4.625,4.625,0,0,1,2.515.291L7.608,8.495A4.713,4.713,0,0,1,5.782,4.312,4.49,4.49,0,0,1,7.24,1.3a4.7,4.7,0,0,1,6.584.079A4.569,4.569,0,0,1,15.2,5.041a4.706,4.706,0,0,1-1.832,3.45l1.064,1.846a4.721,4.721,0,0,1,4.526.509,4.559,4.559,0,0,1,1.933,2.939,4.715,4.715,0,0,1-3.373,5.487,4.521,4.521,0,0,1-3.879-.615,4.677,4.677,0,0,1-2.082-3.314H9.455a10.775,10.775,0,0,1-.367,1.179,4.551,4.551,0,0,1-3.727,2.873A4.653,4.653,0,0,1,.484,16.813a4.576,4.576,0,0,1-.457-1.522c-.009-.067-.025-.133-.038-.2v-.779ZM9.418,14.1h2.148a4.769,4.769,0,0,1,.592-1.737,4.951,4.951,0,0,1,1.22-1.4L12.3,9.1a4.734,4.734,0,0,1-1.812.362,4.8,4.8,0,0,1-1.813-.36L7.6,10.965A4.794,4.794,0,0,1,9.418,14.1Zm5.194,1.754a1.991,1.991,0,0,1,2.808-2.735,2.015,2.015,0,0,1,.773,1.171,1.973,1.973,0,0,1-.295,1.56l1.125,1a3.444,3.444,0,0,0-.35-4.651,3.5,3.5,0,0,0-4.925.085,3.447,3.447,0,0,0-.252,4.56l1.117-.987Zm-11.534,0a1.992,1.992,0,0,1,2.778-2.757,2,2,0,0,1,.51,2.755l1.126,1a3.475,3.475,0,0,0-.476-4.771,3.511,3.511,0,0,0-4.889.3,3.435,3.435,0,0,0-.161,4.461l1.113-.987Zm10.18-8.993A3.494,3.494,0,1,0,7.731,6.85l1.114-.987A1.981,1.981,0,0,1,9.15,3.278a1.976,1.976,0,0,1,3.213.81,1.975,1.975,0,0,1-.23,1.77l1.125,1Z" transform="translate(0 0)" fill="#363636"/>
  </g>
</svg>
