<svg xmlns="http://www.w3.org/2000/svg" xmlns:xlink="http://www.w3.org/1999/xlink" width="494" height="386.535" viewBox="0 0 494 386.535"><defs><style>.a,.j{fill:#d03827;}.a,.d,.g,.l{opacity:0.1;}.b{fill:url(#a);}.c{fill:#efb7b9;}.e{fill:#dce6f2;}.f{fill:#965d7b;}.h{fill:#444053;}.i{fill:#a36468;}.k{opacity:0.05;}.l{fill:#fff;}.m{fill:#a8a8a8;}.n{opacity:0.2;}</style><linearGradient id="a" y1="0.5" x2="1" y2="0.5" gradientUnits="objectBoundingBox"><stop offset="0" stop-color="gray" stop-opacity="0.251"/><stop offset="0.54" stop-color="gray" stop-opacity="0.122"/><stop offset="1" stop-color="gray" stop-opacity="0.102"/></linearGradient></defs><g transform="translate(0.004 -0.003)"><ellipse class="a" cx="86.171" cy="16.324" rx="86.171" ry="16.324" transform="translate(87.113 346.403)"/><path class="a" d="M382.245,109.543c-31.669-1.1-61.832-11.323-90.634-22.509s-57.33-23.576-88.241-29.5c-19.881-3.812-42.621-4.355-58.636,6.293-15.419,10.276-20.4,27.965-23.077,44.392-2.016,12.36-3.2,25.372,2.319,36.944,3.836,8.035,10.638,14.788,15.345,22.485,16.378,26.776,4.8,59.8-12.943,85.941-8.319,12.263-17.983,23.977-24.408,37.018s-9.4,28.034-3.773,41.373c5.569,13.212,18.844,23.116,33.226,30.089,29.208,14.166,63.613,18.218,97.186,20.518,74.3,5.079,148.982,2.882,223.472.675,27.569-.812,55.255-1.639,82.374-5.9,15.062-2.368,30.608-6.126,41.544-15.2,13.877-11.514,17.317-31.009,8.015-45.444-15.6-24.222-58.72-30.236-69.637-56.224-6-14.308.161-30.241,8.886-43.506,18.712-28.464,50.073-53.435,51.722-85.966,1.135-22.343-13.941-44.72-37.253-55.294C513.3,64.642,479.416,66.037,461.4,84.382,442.829,103.25,410.21,110.517,382.245,109.543Z" transform="translate(-95.23 -55.03)"/><path class="b" d="M470.888,281.123l-14.988-10.1h0l7.56-11.255-39.587-3.156-14.225,11-17.807-9.982-14.851,1.786-.176-3.915a110.481,110.481,0,0,0-1.228-12.184c.064-1.223.108-2.628.1-4.154,0-6.435-.871-14.964-4.7-20.65l.881-7.917-7.144-8.441a54,54,0,0,1,3.915-6.586c.245-.352.489-.695.754-1.028a17.767,17.767,0,0,0,16.588-17.616,11.269,11.269,0,0,0-.049-1.287,4.663,4.663,0,0,0-.054-.519c.905.489,1.82.979,2.735,1.468.171.245.367.489.582.778h0l.044.054.274.338.088.1c.1.117.2.23.3.347l.069.078c.259.289.533.582.827.871a.883.883,0,0,1,.1.093l.367.342.1.093c.313.279.646.548.979.8l.108.078.421.289.137.088c.161.1.328.2.489.294l.059.034c.191.1.387.2.582.294l.1.039q.25.108.489.206l.152.054c.171.059.338.113.514.161l.108.029c.215.054.431.1.651.132h.024a5.33,5.33,0,0,0,.626.064h.142a5.392,5.392,0,0,0,.563,0h.122a5.8,5.8,0,0,0,.7-.083,7.721,7.721,0,0,0,3.083-1.106,2.691,2.691,0,0,0,.626-.582,2.307,2.307,0,0,0-.1-2.686h0c-.382-.91-2.858-1.551-2.858-1.551s-7.829-3.269-7.829-5.872-1.957-16.109-22.162-19.2c0,0-13.143-.739-16.838,6.3l-.078.822c-1.086.68-1.987,2.045-3.058,2.447a5,5,0,0,0-1.326.489v-.093h0a1.263,1.263,0,0,0-.3.387,3.915,3.915,0,0,0-.406,1.468,5.529,5.529,0,0,1-.641,1.776,3.949,3.949,0,0,1-.294.45h0l-.083.132a3.572,3.572,0,0,0,1.664-.269,8.283,8.283,0,0,1-.489,1.957,1.625,1.625,0,0,0,1.507-.9v-.039l.064-.088a4.129,4.129,0,0,0,.3-.71l-.054.059c.1-.318.186-.641.294-.954a1.5,1.5,0,0,1,.24-.489,1.184,1.184,0,0,1,1.013-.338l-.2,4.242h.088a5.788,5.788,0,0,1-.431.891c-.695,1.125-1.957,1.894-2.422,3.127a4.6,4.6,0,0,0-.225,1.85c0,.367.044.739.073,1.106v-.029a4.127,4.127,0,0,1-.44,2.7c-.362.538-.944.944-1.145,1.556a1.517,1.517,0,0,0-.073.529,5.935,5.935,0,0,0,.333,1.571.069.069,0,0,0,0-.029,2.388,2.388,0,0,1,.083,1.155c-.22.979-1.409,1.8-1.351,2.73a1.052,1.052,0,0,0,.054.362,1.982,1.982,0,0,0,1.106.979,4.306,4.306,0,0,0,2.486.548,3.27,3.27,0,0,0,.93-.318c-.343.788-.695,1.566-1.052,2.3-.054.117-.113.235-.171.352,0,0-3.024-2.021-4.742,2.1a9.141,9.141,0,0,0-1.062,2.76,6.569,6.569,0,0,1-.362,1.135,7.306,7.306,0,0,1-3.269,2.936c-3.5,1.6-17.655,19.255-17.9,23.825a26.666,26.666,0,0,1-.9,5.275,31.392,31.392,0,0,0-.842,12.473,23.867,23.867,0,0,0,.866,3.978c1.5,4.565,2.505,13.085,2.505,13.085l1.625,14.788a42.083,42.083,0,0,0,.264,6.112c-1.659,1.894-8.319,9.787-5.774,11.935,1.957,1.693,5.383,1.414,7.306,1.067-1.62,4.008-4.169,10.976-4.507,15.761-.489,7.081.837,16.461,2.936,20.063s9.1,12.84,9.1,12.84S333.166,352,335.666,356.6s3.508,14.156,3.508,14.156,2.334,8.064,1.165,11.03,2.168,5.432-1.336,7.4-7.986,46.418-7.986,46.418-1.806,29.13,0,30.612a1.838,1.838,0,0,0,.308.181v9.787s-1.253,2.055,3.841,2.471c3.489.279,13.378.91,19.245,1.277l4.546.284s10.765,2.143,15.522,0,13.187-2.094,11.935-7.756a16.11,16.11,0,0,0-.665-2.266c-1.375-3.513-3.709-3.915-8.01-4.893-.25-.054-.489-.1-.71-.142-4.531-.788-6.019,1.321-8.558-1.424-2.207-2.373-9.234-5.03-11.626-5.872.059-.176.132-.347.191-.529a3.582,3.582,0,0,1-1.815-.886l6.484.411,3.861.24s9.15,1.825,13.212,0,11.206-1.776,10.139-6.586a13.8,13.8,0,0,0-.563-1.928c-1.169-2.985-3.156-3.313-6.811-4.14-.21-.044-.406-.088-.6-.122-3.851-.67-5.114,1.121-7.271-1.209-1.85-1.987-7.687-4.213-9.787-4.972,0-1.086-1.468-2.633-2.393-4.184-1.086-1.811.92-8.147.92-8.147l1.145-26.292a5.078,5.078,0,0,1,1.37-.391s5.177-4.942,4.008-10.207a33.839,33.839,0,0,1-.372-4.81c1.7-1.581,4.047-3.915,4.712-5.353,1.086-2.344,0-13.7,0-13.7V321.635l8.661.876,7.859.807,2.393.245,7.859.793,18.061,1.825,16.275-3.083,7.041-1.331,14.479-2.74V283.6Zm-119.206-117.4-1.008-.108C351.007,163.635,351.359,163.7,351.682,163.728Z" transform="translate(-209.04 -104.111)"/><path class="c" d="M518.952,445.278c-4.893,7-22.485,3.293-22.485,3.293l-13.633-12.757L481,434.087l3.078-6.537s.979.269,2.657.749C495.548,430.858,523.082,439.392,518.952,445.278Z" transform="translate(-292.233 -245.263)"/><path class="d" d="M486.725,428.3a28.7,28.7,0,0,1-3.89,7.516L481,434.087l3.078-6.537S485.066,427.819,486.725,428.3Z" transform="translate(-292.233 -245.263)"/><path class="e" d="M384.656,278.205s-12.566,5.573-11.949,19.26a225.661,225.661,0,0,0,2.877,26.306s-2.569,20.6,8.128,25.905,20.6,9.674,20.6,9.674,16.735,1.8,18.815,2.545,8.578-10.628,7.379-12.4-16.559-5.485-18.516-8.441-6.484-4.781-6.484-4.781-4.673-2.828-4.991-5.383.915-4.458,1.228-5.578,1.106-11.94,1.106-11.94S408.12,274.863,384.656,278.205Z" transform="translate(-236.92 -168.892)"/><path class="d" d="M397.732,370.39s-17.239,2.887-15.57,8.921A36.548,36.548,0,0,1,397.732,370.39Z" transform="translate(-241.701 -216.073)"/><path class="d" d="M406.163,375.38s-9.478,7.736-7.624,8.133S406.163,375.38,406.163,375.38Z" transform="translate(-250 -218.621)"/><path class="d" d="M422.129,380.89s-2.54,5.2-.979,4.849S422.129,380.89,422.129,380.89Z" transform="translate(-261.411 -221.435)"/><path class="d" d="M432.707,353.053l-1.047-.3a2.992,2.992,0,0,0,.137-2.138c-1.2-1.771-16.549-5.48-18.5-8.441s-6.484-4.781-6.484-4.781-4.673-2.828-4.991-5.383.915-4.458,1.228-5.578,1.106-11.945,1.106-11.945,5.26-38.505-18.2-35.163c0,0-12.566,5.578-11.954,19.265A225.02,225.02,0,0,0,376.88,324.9s-2.569,20.6,8.128,25.905,20.6,9.674,20.6,9.674,16.73,1.8,18.815,2.545c.788.284,2.212-1.179,3.606-3.19l.793.739,13.633,12.752s17.591,3.714,22.485-3.288C469.069,364.141,441.54,355.607,432.707,353.053Z" transform="translate(-237.579 -169.464)"/><path class="f" d="M379.3,170.5a4.159,4.159,0,0,0-1.355.524c-.489.406-.489,1.1-.612,1.708a5.618,5.618,0,0,1-.979,2.339,3.518,3.518,0,0,0,1.629-.269,8.387,8.387,0,0,1-.489,1.957,1.585,1.585,0,0,0,1.468-.9,9.422,9.422,0,0,0,.612-1.718,1.415,1.415,0,0,1,.235-.489c.45-.533,1.287-.294,1.982-.225a3.254,3.254,0,0,0,2.975-1.429c.739-1.121.783-3.988-.979-4.291C381.943,167.41,380.8,169.945,379.3,170.5Z" transform="translate(-238.792 -112.56)"/><g class="g" transform="translate(137.632 58.34)"><path d="M378.693,174.979c.044-.24.073-.489.127-.729h0a2.87,2.87,0,0,0-.612,1.708,5.378,5.378,0,0,1-.289,1.032A5.609,5.609,0,0,0,378.693,174.979Z" transform="translate(-377.225 -174.25)"/><path d="M378.125,181.957a8.137,8.137,0,0,0,.489-1.957,3.5,3.5,0,0,1-1.551.269,5.661,5.661,0,0,1-.563.979,3.484,3.484,0,0,0,1.625-.264,8.138,8.138,0,0,1-.489,1.957,1.59,1.59,0,0,0,1.468-.9,3.652,3.652,0,0,0,.294-.7A1.468,1.468,0,0,1,378.125,181.957Z" transform="translate(-376.5 -177.186)"/><path d="M386.159,175.949c-.695-.069-1.537-.308-1.987.225a1.512,1.512,0,0,0-.235.489c-.044.127-.083.259-.117.391.465-.367,1.218-.171,1.85-.108a3.269,3.269,0,0,0,2.975-1.429,2.712,2.712,0,0,0,.328-.768A3.259,3.259,0,0,1,386.159,175.949Z" transform="translate(-380.238 -174.505)"/></g><path class="e" d="M314.6,201l7.462,8.974-.974,9.058-9.018-14.117Z" transform="translate(-159.367 -102.643)"/><path class="d" d="M322.057,209.974l-.915,8.519-.059.538-8.138-12.742-.876-1.375.254-.4L314.595,201l.5.607Z" transform="translate(-159.367 -102.643)"/><path class="c" d="M403.371,217.437c-2.525.724-4.937,3.21-7.037,6.229a53.153,53.153,0,0,0-3.8,6.528c-.69,1.38-1.3,2.706-1.8,3.861l-.352.822c-.851,2.011-1.326,3.357-1.326,3.357s-19.329-14.533-16.27-15.512c1.028-.328,2.378-2.53,3.714-5.3l.166-.352c.847-1.781,1.678-3.768,2.417-5.637,1.512-3.841,2.633-7.178,2.633-7.178S411.078,215.235,403.371,217.437Z" transform="translate(-236.805 -131.23)"/><path class="h" d="M459.26,202.58s4.463,8.074,10.457,6.973,3.528-4.335,3.528-4.335Z" transform="translate(-281.131 -130.378)"/><path class="i" d="M404.076,753.845c-3.954,1.806-12.894,0-12.894,0l-3.768-.235c-4.893-.313-13.085-.842-15.982-1.076-4.228-.347-3.19-2.08-3.19-2.08V739.987l20.513-5.2s8.108,2.774,10.33,5.2c2.109,2.31,3.342.533,7.105,1.2.186.034.382.073.587.122,3.572.817,5.51,1.14,6.655,4.1a13.752,13.752,0,0,1,.553,1.908C415.042,752.083,408.025,752.049,404.076,753.845Z" transform="translate(-234.594 -402.161)"/><path class="d" d="M413.432,752.083a15.332,15.332,0,0,1-2.31,1.184c-2.691,1.228-5.251,2.726-7.971,3.885a18.643,18.643,0,0,1-8.6,1.766c-1.541-.113-3.117-.489-4.59-.049a10.6,10.6,0,0,0-2.549,1.414c-4.893-.313-13.085-.842-15.982-1.076-4.228-.348-3.19-2.08-3.19-2.08V755.9c.152,0,.323-.044.519-.059a9.239,9.239,0,0,1,2.985.445c2.124.577,4.238,1.145,6.361,1.713a5.026,5.026,0,0,1,2.447-3.122,7.8,7.8,0,0,1,3.944-.905c3.293.044,6.41,1.6,9.7,1.762a5.342,5.342,0,0,0,2.686-.45c.45-.225.847-.553,1.287-.8a9.391,9.391,0,0,1,2.217-.749,48.826,48.826,0,0,0,6.337-2.045c.587-.23,1.272-.646,1.194-1.272-.1-.832-1.409-.93-1.752-1.693a.979.979,0,0,1,.039-.866c.186.034.382.073.587.122C410.35,748.8,412.287,749.122,413.432,752.083Z" transform="translate(-234.594 -408.836)"/><path class="i" d="M388.917,797.126c-4.649,2.124-15.169,0-15.169,0l-4.428-.259c-5.735-.367-15.394-.979-18.8-1.267-4.976-.411-3.753-2.447-3.753-2.447V780.817L370.9,774.7s9.542,3.264,12.155,6.117c2.481,2.716,3.915.626,8.363,1.409.22.039.45.088.69.142,4.2.979,6.484,1.346,7.829,4.83a15.706,15.706,0,0,1,.651,2.246C401.8,795.051,393.566,795.007,388.917,797.126Z" transform="translate(-223.614 -422.542)"/><path class="d" d="M399.927,795.077a18.224,18.224,0,0,1-2.716,1.395c-3.166,1.444-6.18,3.205-9.38,4.57a21.99,21.99,0,0,1-10.119,2.08c-1.811-.132-3.665-.587-5.383-.059a12.479,12.479,0,0,0-3.009,1.683c-5.735-.367-15.394-.979-18.8-1.267-4.976-.411-3.753-2.447-3.753-2.447v-1.439a6.089,6.089,0,0,1,.612-.068,10.734,10.734,0,0,1,3.513.523l7.482,2.016a5.921,5.921,0,0,1,2.9-3.675,9.132,9.132,0,0,1,4.644-1.067c3.876.054,7.541,1.889,11.411,2.075a6.318,6.318,0,0,0,3.151-.524c.533-.269.979-.656,1.517-.944a10.642,10.642,0,0,1,2.608-.881,58.576,58.576,0,0,0,7.418-2.408c.69-.274,1.5-.763,1.4-1.5-.122-.979-1.659-1.1-2.065-2a1.179,1.179,0,0,1,.049-1.018c.22.039.45.088.69.142C396.3,791.211,398.581,791.593,399.927,795.077Z" transform="translate(-223.614 -430.422)"/><path class="h" d="M394.815,647.54l-1.307,30.745s-1.957,6.278-.9,8.074,2.853,3.587,2.2,4.649-8.48,12.542-11.01,8.138-5.025-23.488-5.025-23.488l2.334-23.571Z" transform="translate(-240.033 -357.605)"/><path class="h" d="M415.47,491l3.631,4.854v42.219s1.062,11.255,0,13.579-6.444,6.973-6.444,6.973l-4.526-23.243.979-24.589Z" transform="translate(-255.021 -277.665)"/><path class="d" d="M394.815,647.54l-1.307,30.745s-1.957,6.278-.9,8.074,2.853,3.587,2.2,4.649-8.48,12.542-11.01,8.138-5.025-23.488-5.025-23.488l2.334-23.571Z" transform="translate(-240.033 -357.605)"/><path class="d" d="M415.47,491l3.631,4.854v42.219s1.062,11.255,0,13.579-6.444,6.973-6.444,6.973l-4.526-23.243.979-24.589Z" transform="translate(-255.021 -277.665)"/><path class="h" d="M377.67,441.944v22.837l-4.076,17.777s-1.307,42.9-.166,48.116-3.915,10.114-3.915,10.114-2.936.328-2.936,2.608-4.893,8.808-4.893,8.808l.161,12.723s2.124,23.816-1.14,28.381,1.14,5.221,1.14,5.221c-4.076,13.373-23.649,10.276-25.416,8.808s0-30.339,0-30.339,4.375-44.04,7.8-46,.166-4.4,1.307-7.34-1.14-10.927-1.14-10.927-.979-9.464-3.425-14.029-2.124-17.127-2.124-17.127-6.851-9.136-8.886-12.723-3.347-12.884-2.858-19.9c.333-4.742,2.823-11.646,4.4-15.619.758-1.9,1.306-3.137,1.306-3.137l.465.122,26.727,7Z" transform="translate(-213.59 -246.616)"/><path class="d" d="M410.28,217.4c-2.525.724-4.937,3.21-7.037,6.229H402.7a17.479,17.479,0,0,1-15.169-8.774,17.213,17.213,0,0,1-1.536-3.5c1.512-3.841,2.633-7.178,2.633-7.178S417.987,215.2,410.28,217.4Z" transform="translate(-243.714 -131.195)"/><path class="c" d="M419.367,187.93a17.494,17.494,0,1,1-32.726-8.573,17.1,17.1,0,0,1,1.85-2.672,17.7,17.7,0,0,1,4.022-3.533,17.494,17.494,0,0,1,26.83,13.5C419.352,187.078,419.367,187.5,419.367,187.93Z" transform="translate(-242.892 -113.956)"/><path class="d" d="M398.58,260.456l-.059.538-8.138-12.723c-.851,2.011-1.326,3.357-1.326,3.357s-19.329-14.553-16.27-15.531c1.028-.328,2.378-2.53,3.714-5.3l.166-.352c1.419,4.228,9.664,12.679,13.094,16.065.4.391.724.714.979.949l.524.489.274.274C392.787,249.5,398.052,255.181,398.58,260.456Z" transform="translate(-236.805 -144.605)"/><path class="e" d="M378.122,303.476l-.891,28.66-.157,5.1s-10.55-.979-20.4-2.055c-7.927-.866-15.4-1.8-16.549-2.349a31.146,31.146,0,0,0-7.1-1.561c-1.918-.259-3.425-.4-3.425-.4s-.563.166-1.429.323c-1.889.343-5.206.621-7.139-1.057-2.471-2.148,4.022-9.953,5.642-11.827l.357-.406-.612-5.652-1.59-14.655s-.979-8.441-2.447-12.967a23.921,23.921,0,0,1-.847-3.939,31.552,31.552,0,0,1,.822-12.36,26.954,26.954,0,0,0,.881-5.231c.245-4.526,14.068-22.02,17.494-23.61a7.262,7.262,0,0,0,3.5-3.494,6.674,6.674,0,0,0,.533-1.522c1.468-6.361,5.182-3.836,5.182-3.836.9,4.977,14.758,18.149,14.758,18.149l.274.274c1.375,1.409,7.5,8.025,7.066,13.672a16.574,16.574,0,0,0,.925,6.185,104.6,104.6,0,0,1,4.82,27.4Z" transform="translate(-210.264 -144.457)"/><path class="d" d="M391.424,310.45s-3.425,8.319-5.994,9.664S392.647,322.952,391.424,310.45Z" transform="translate(-243.208 -185.464)"/><path class="d" d="M395.209,342.2s-7.829.979-7.829,2.447S395.209,342.2,395.209,342.2Z" transform="translate(-244.424 -201.677)"/><path class="d" d="M404.539,361.7s-11.377,24.222-14.558,24.956S404.539,361.7,404.539,361.7Z" transform="translate(-245.558 -211.635)"/><path class="d" d="M388.767,251.017l-9.41,4.091L368,237.952a6.674,6.674,0,0,0,.533-1.522c1.468-6.361,5.182-3.836,5.182-3.836.9,4.976,14.758,18.149,14.758,18.149Z" transform="translate(-234.527 -145.452)"/><path class="e" d="M389.767,249.017l-9.41,4.091L369,235.952a6.674,6.674,0,0,0,.533-1.522c1.468-6.361,5.182-3.836,5.182-3.836.9,4.976,14.758,18.149,14.758,18.149Z" transform="translate(-235.038 -144.431)"/><path class="d" d="M382.381,368.739s-10.55-.979-20.4-2.055l17.665,4.624v5.383c-.773.7-1.444,1.062-1.879.876-2.036-.856-18.648-3.548-18.648-3.548s-9.65-4.893-20.063-10.765a8.037,8.037,0,0,1-.734-.46,11.568,11.568,0,0,1-3.083-3.088,21.914,21.914,0,0,1-3.269-9.87,42.684,42.684,0,0,1-.254-6.058,49.666,49.666,0,0,1,.626-6.846,225.118,225.118,0,0,1-1.468-26.424c.122-13.7,12.967-18.595,12.967-18.595,23.61-2.08,16.29,36.088,16.29,36.088s-1.365,10.765-1.737,11.866-1.708,2.936-1.527,5.5,4.693,5.642,4.693,5.642,4.4,2.065,6.219,5.123c1.321,2.256,9.9,5.314,14.753,7.5Z" transform="translate(-215.57 -175.956)"/><path class="d" d="M417.574,174.69a5.539,5.539,0,0,1-.489,2.339,14.459,14.459,0,0,1-.871,1.742,8.025,8.025,0,0,1-2.143,2.662,10.964,10.964,0,0,1-3.915,1.36,5.665,5.665,0,0,0-3.538,2.006,7.018,7.018,0,0,0-.827,2.4,5.157,5.157,0,0,1-.979,2.319,1.923,1.923,0,0,1-2.29.548,2.315,2.315,0,0,1-.886-1.14,16.353,16.353,0,0,1-.925-4.008,8.526,8.526,0,0,0-1.375-3.841,3.44,3.44,0,0,0-3.611-1.385,3.479,3.479,0,0,0-1.957,1.9,10.883,10.883,0,0,0-.739,2.7q-.91,4.981-2.148,9.9a.909.909,0,0,1-.161.372.7.7,0,0,1-.489.206c-1.1.147-2.148-.621-3.254-.538a1.871,1.871,0,0,0-.338.054,17.484,17.484,0,0,1,1.766-19.965l.088-.024a5.275,5.275,0,0,0,1.957-1.233,20.654,20.654,0,0,0,1.957-2.266l.391-.489a22.318,22.318,0,0,1,3.817-3.626,3.914,3.914,0,0,1,1.3-.7,3.856,3.856,0,0,1,1.233-.039,31.105,31.105,0,0,0,5.094.191,32.678,32.678,0,0,1,3.577-.362c3.1.088,5.74,2.275,7.7,4.673A7.238,7.238,0,0,1,417.574,174.69Z" transform="translate(-242.856 -111.58)"/><path class="f" d="M379.061,176.95c-.68,1.116-1.908,1.874-2.368,3.1-.675,1.776.465,3.988-.582,5.573-.347.533-.92.93-1.116,1.541-.333,1.032.577,2.133.343,3.2s-1.634,1.957-1.262,2.995a1.958,1.958,0,0,0,1.077.979,4.208,4.208,0,0,0,2.447.543c1.336-.22,2.329-1.532,3.685-1.629,1.1-.078,2.153.685,3.249.543a.734.734,0,0,0,.489-.21.847.847,0,0,0,.161-.372q1.233-4.918,2.153-9.9a10.67,10.67,0,0,1,.734-2.7,3.508,3.508,0,0,1,1.957-1.9,3.451,3.451,0,0,1,3.611,1.385,8.475,8.475,0,0,1,1.38,3.841,16.57,16.57,0,0,0,.92,4.008,2.339,2.339,0,0,0,.891,1.145,1.917,1.917,0,0,0,2.285-.548,5.1,5.1,0,0,0,.979-2.324,6.987,6.987,0,0,1,.827-2.393,5.677,5.677,0,0,1,3.538-2.006,11.072,11.072,0,0,0,3.915-1.365,8.054,8.054,0,0,0,2.143-2.657,7.822,7.822,0,0,0,1.341-4.086,7.5,7.5,0,0,0-2.006-4.233c-1.957-2.4-4.6-4.585-7.7-4.668a30.44,30.44,0,0,0-3.577.362,30.617,30.617,0,0,1-5.094-.2,4,4,0,0,0-1.233.044,3.69,3.69,0,0,0-1.3.7,22.328,22.328,0,0,0-3.822,3.621,28.041,28.041,0,0,1-2.359,2.74,5.309,5.309,0,0,1-1.957,1.238c-.489.137-.979.039-1.444.191C379.922,173.96,379.731,175.844,379.061,176.95Z" transform="translate(-237.598 -111.085)"/><path class="d" d="M469.717,209.548c-3.915.719-7.159-2.447-8.955-4.756a19.188,19.188,0,0,1-1.5-2.212l13.437,2.535.543.1S475.711,208.452,469.717,209.548Z" transform="translate(-281.131 -130.378)"/><g class="g" transform="translate(136.391 62.132)"><path d="M376.285,212.209A4.076,4.076,0,0,0,376,210.33c0,.049-.044.1-.059.147a3.642,3.642,0,0,0,.254,2.016A1.468,1.468,0,0,0,376.285,212.209Z" transform="translate(-374.936 -196.467)"/><path d="M379.069,197.8a10.871,10.871,0,0,0,.039,2.031,10.9,10.9,0,0,0-.039-2.031Z" transform="translate(-376.555 -190.069)"/><path d="M410.461,185.156a8.025,8.025,0,0,1-2.143,2.662,10.932,10.932,0,0,1-3.915,1.36,5.652,5.652,0,0,0-3.538,2.006,7.051,7.051,0,0,0-.827,2.4,5.122,5.122,0,0,1-.979,2.324,1.91,1.91,0,0,1-2.285.548,2.339,2.339,0,0,1-.891-1.145,16.291,16.291,0,0,1-.92-4.008,8.454,8.454,0,0,0-1.38-3.841,3.44,3.44,0,0,0-3.611-1.385,3.494,3.494,0,0,0-1.957,1.9,10.665,10.665,0,0,0-.734,2.7q-.915,4.986-2.153,9.9a.846.846,0,0,1-.161.372.734.734,0,0,1-.489.21c-1.1.142-2.148-.621-3.249-.543-1.355.1-2.349,1.409-3.685,1.625a4.135,4.135,0,0,1-2.447-.543,2.617,2.617,0,0,1-.9-.636,1.321,1.321,0,0,0-.181,1.14,1.908,1.908,0,0,0,1.077.979,4.135,4.135,0,0,0,2.447.543c1.336-.215,2.329-1.527,3.685-1.625,1.1-.078,2.153.685,3.249.543a.734.734,0,0,0,.489-.21.846.846,0,0,0,.161-.372q1.233-4.893,2.153-9.9a10.667,10.667,0,0,1,.734-2.7,3.494,3.494,0,0,1,1.957-1.9,3.443,3.443,0,0,1,3.611,1.385,8.475,8.475,0,0,1,1.38,3.841,16.569,16.569,0,0,0,.92,4.008,2.339,2.339,0,0,0,.891,1.145,1.916,1.916,0,0,0,2.285-.548,5.123,5.123,0,0,0,.979-2.324,7.052,7.052,0,0,1,.827-2.4,5.7,5.7,0,0,1,3.538-2.006,11.161,11.161,0,0,0,3.915-1.36,8.026,8.026,0,0,0,2.143-2.662,7.791,7.791,0,0,0,1.341-4.081,5.238,5.238,0,0,0-.059-.558,9.615,9.615,0,0,1-1.282,3.156Z" transform="translate(-373.964 -182)"/></g><path class="d" d="M419.485,179.4a17.288,17.288,0,0,1,2.178,7.267c-4.36-2.447-8.461-5.133-10.53-6.068-3.606-1.629-17.092-1.385-22.162-1.233a17.089,17.089,0,0,1,1.85-2.672,17.7,17.7,0,0,1,4.037-3.533,17.5,17.5,0,0,1,24.652,6.229Z" transform="translate(-245.236 -113.96)"/><path class="d" d="M470.94,207.473c-2.354.724-6.195-.675-10.178-2.682a19.188,19.188,0,0,1-1.5-2.212l13.437,2.535C473.588,205.721,473.813,206.588,470.94,207.473Z" transform="translate(-281.131 -130.378)"/><path class="h" d="M403.253,154.057s-12.845-.734-16.456,6.239l-.582,6.18-.979-.108-.2,4.2s19.632-.856,24.1,1.16,18.35,12.175,23.914,10.462-.489-3.3-.489-3.3-7.658-3.244-7.658-5.789S423.007,157.115,403.253,154.057Z" transform="translate(-243.229 -105.587)"/><path class="d" d="M371.63,622.28s8.2,7.952,11.744,7.34C383.374,629.62,373.343,628.764,371.63,622.28Z" transform="translate(-236.381 -344.706)"/><path class="d" d="M368.13,629.81s.734,4.091,2.691,3.689S368.13,629.81,368.13,629.81Z" transform="translate(-234.594 -348.551)"/><path class="d" d="M384.051,769.53s-11.636,9.053-9.674,9.3S384.051,769.53,384.051,769.53Z" transform="translate(-237.67 -419.902)"/><path class="j" d="M330.96,340.931l37.678-6.131v35.672l-35.8-1.874Z" transform="translate(-169.013 -170.971)"/><path class="k" d="M330.96,340.931l37.678-6.131v35.672l-35.8-1.874Z" transform="translate(-169.013 -170.971)"/><path class="j" d="M407.96,334.8l45.185,3.381-2.5,31.043-42.684,1.248Z" transform="translate(-208.335 -170.971)"/><path class="d" d="M407.96,334.8l45.185,3.381-2.5,31.043-42.684,1.248Z" transform="translate(-208.335 -170.971)"/><path class="j" d="M421.852,312.55,407.96,323.438l45.185,3.381,7.384-11.142Z" transform="translate(-208.335 -159.608)"/><path class="j" d="M303.08,318.72,337,314.59l17.4,9.889-37.678,6.131Z" transform="translate(-154.776 -160.65)"/><path class="j" d="M376.9,350.462v48.772l-17.65-1.811-7.678-.783-2.339-.245-7.673-.788-10.6-1.086V347.33l37.674,2.564Z" transform="translate(-169.013 -177.369)"/><path class="j" d="M461.765,341.71v47.563l-14.147,2.716-6.88,1.321-15.9,3.053V347.592Z" transform="translate(-216.955 -174.499)"/><path class="k" d="M461.765,341.71v47.563l-14.147,2.716-6.88,1.321-15.9,3.053V347.592Z" transform="translate(-216.955 -174.499)"/><path class="j" d="M303.08,357.6l13.642-10.266,45.938,3.132L355.9,361.853Z" transform="translate(-154.776 -177.369)"/><path class="l" d="M303.08,357.6l13.642-10.266,45.938,3.132L355.9,361.853Z" transform="translate(-154.776 -177.369)"/><path class="j" d="M461.765,341.71l-36.925,5.882,12.018,10.765,39.553-6.635Z" transform="translate(-216.955 -174.499)"/><path class="l" d="M461.765,341.71l-36.925,5.882,12.018,10.765,39.553-6.635Z" transform="translate(-216.955 -174.499)"/><path class="l" d="M464.21,433.537l-6.88,1.321V424.695l6.444-1.625Z" transform="translate(-233.547 -216.047)"/><path class="l" d="M380.758,435.96v6.723l-7.678-.783v-5.94Z" transform="translate(-190.523 -222.63)"/><path class="l" d="M360.293,440.29v3.577l-7.673-.788V440.29Z" transform="translate(-180.074 -224.841)"/><path class="d" d="M471.712,463.273c-5.26,6.728-22.632,2.08-22.632,2.08l-12.909-13.466-1.752-1.825,3.425-6.361s.979.323,2.613.891C449.11,447.615,476.14,457.612,471.712,463.273Z" transform="translate(-268.446 -253.51)"/><path class="c" d="M470.712,461.273c-5.26,6.728-22.632,2.08-22.632,2.08l-12.909-13.466-1.752-1.825,3.425-6.361s.979.323,2.613.891C448.11,445.615,475.14,455.612,470.712,461.273Z" transform="translate(-267.936 -252.489)"/><path class="d" d="M439.418,442.591a28.93,28.93,0,0,1-4.287,7.3l-1.752-1.825,3.425-6.361S437.789,442.023,439.418,442.591Z" transform="translate(-267.915 -252.489)"/><path class="e" d="M344.846,287.912S332,292.806,331.879,306.507a225.132,225.132,0,0,0,1.468,26.424s-3.67,20.43,6.728,26.3S360.138,370,360.138,370s16.613,2.691,18.653,3.548,9.131-10.154,8.03-11.989-16.226-6.361-18.022-9.42-6.219-5.118-6.219-5.118-4.512-3.078-4.693-5.647,1.15-4.4,1.527-5.5S361.155,324,361.155,324,368.456,285.808,344.846,287.912Z" transform="translate(-216.081 -173.911)"/><path class="d" d="M353.578,380.7s-17.371,1.957-16.026,8.074A36.546,36.546,0,0,1,353.578,380.7Z" transform="translate(-218.941 -221.338)"/><path class="d" d="M361.748,385.7s-9.86,7.218-8.049,7.707S361.748,385.7,361.748,385.7Z" transform="translate(-227.111 -223.891)"/><path class="d" d="M377.6,391.7s-2.814,5.06-1.223,4.8S377.6,391.7,377.6,391.7Z" transform="translate(-238.554 -226.955)"/><path class="j" d="M731.678,167.395s-18.595-1.121-16.422,11.925a3.182,3.182,0,0,0,1.654,3.352s.034-.979,1.908-.641a8.569,8.569,0,0,0,2.021.1,4.194,4.194,0,0,0,2.476-1.023h0s5.231-2.158,7.267-10.711c0,0,1.507-1.869,1.468-2.349l-3.141,1.346a5.63,5.63,0,0,1,.225,4.15s-.1-4.066-.7-3.973c-.122,0-1.63.788-1.63.788s1.845,3.944.45,6.816c0,0,.529-4.864-1.028-6.533l-2.212,1.292s2.158,4.076.695,7.4c0,0,.377-5.1-1.16-7.09l-2.006,1.561s2.031,4.022.793,6.782c0,0-.161-5.94-1.228-6.391a12.105,12.105,0,0,0-2.016,2.182s1.385,2.936.524,4.458c0,0-.529-3.959-.979-3.978a13.171,13.171,0,0,0-1.928,4.4,9.522,9.522,0,0,1,1.5-4.668,5.241,5.241,0,0,0-2.672,1.385s.269-1.855,3.1-2.016a13.385,13.385,0,0,1,1.83-2.114,11.474,11.474,0,0,0-4.526.524s1.5-1.747,5.045-.979l1.957-1.615s-3.709-.489-5.285.054c0,0,1.811-1.546,5.818-.421l2.153-1.287a19.331,19.331,0,0,0-5.045-.436s1.987-1.072,5.676.088l1.541-.69s-2.319-.455-2.995-.528-.714-.259-.714-.259a8.005,8.005,0,0,1,4.35.489S731.746,167.6,731.678,167.395Z" transform="translate(-411.77 -112.397)"/><path class="a" d="M847.138,300.735s-18.595-1.121-16.422,11.925a3.182,3.182,0,0,0,1.654,3.352s.034-.979,1.913-.641a8.566,8.566,0,0,0,2.021.1,4.189,4.189,0,0,0,2.447-1.018h0s5.236-2.163,7.271-10.716c0,0,1.5-1.864,1.444-2.344l-3.142,1.341a5.646,5.646,0,0,1,.23,4.15s-.1-4.066-.7-3.973c-.122,0-1.634.788-1.634.788s1.85,3.949.455,6.816c0,0,.529-4.864-1.033-6.533l-2.187,1.277s2.158,4.076.695,7.4c0,0,.377-5.1-1.16-7.09l-2,1.566s2.026,4.017.793,6.777c0,0-.162-5.94-1.228-6.391a12.272,12.272,0,0,0-2.021,2.182s1.39,2.936.529,4.458c0,0-.529-3.959-.979-3.978a13.172,13.172,0,0,0-1.928,4.4,9.552,9.552,0,0,1,1.507-4.668,5.265,5.265,0,0,0-2.677,1.385s.274-1.855,3.107-2.016a12.216,12.216,0,0,1,1.83-2.114,11.474,11.474,0,0,0-4.526.524s1.5-1.747,5.04-.954l1.957-1.615s-3.714-.489-5.285.054c0,0,1.811-1.546,5.818-.421l2.153-1.287a19.608,19.608,0,0,0-5.05-.436s1.992-1.072,5.681.088l1.541-.69s-2.319-.455-3-.529-.714-.259-.714-.259a8.02,8.02,0,0,1,4.355.489S847.2,300.94,847.138,300.735Z" transform="translate(-470.732 -180.49)"/><path class="a" d="M620.365,257.9s4.282-18.149-8.95-18.213a3.178,3.178,0,0,0-3.582,1.057s.944.2.3,1.992a8.711,8.711,0,0,0-.44,1.957,4.2,4.2,0,0,0,.582,2.608h0s1.238,5.529,9.3,8.994c0,0,1.585,1.8,2.065,1.82l-.783-3.323a5.622,5.622,0,0,1-4.13-.489s4.027.592,4.032,0c0-.122-.489-1.742-.489-1.742s-4.2,1.145-6.8-.719c0,0,4.7,1.351,6.616.1l-.881-2.407s-4.4,1.434-7.418-.577c0,0,4.967,1.243,7.188.069l-1.2-2.241s-4.306,1.311-6.816-.377c0,0,5.872.851,6.508-.117a12.159,12.159,0,0,0-1.806-2.363s-3.112.871-4.482-.24c0,0,3.988.152,4.081-.269a13.193,13.193,0,0,0-4.027-2.657,9.591,9.591,0,0,1,4.35,2.28,5.28,5.28,0,0,0-.91-2.872s1.781.587,1.468,3.425a12.189,12.189,0,0,1,1.766,2.163,11.508,11.508,0,0,0,.254-4.551s1.468,1.781.083,5.133l1.253,2.226s1.135-3.572.846-5.216c0,0,1.219,2.045-.577,5.8l.905,2.344a19.592,19.592,0,0,0,1.287-4.893s.719,2.143-1.057,5.583l.421,1.634s.842-2.207,1.028-2.863.377-.661.377-.661a8.016,8.016,0,0,1-1.218,4.208S620.155,257.921,620.365,257.9Z" transform="translate(-356.922 -149.234)"/><path class="a" d="M528.312,284.824s-14.934-11.171-20.273.93a3.185,3.185,0,0,0-.46,3.709s.558-.788,1.957.519a8.568,8.568,0,0,0,1.634,1.194,4.2,4.2,0,0,0,2.628.489h0s5.559,1.072,11.959-4.952c0,0,2.285-.734,2.5-1.165l-3.372-.592a5.653,5.653,0,0,1-2.089,3.592s2.148-3.455,1.59-3.7c-.113-.054-1.8-.245-1.8-.245s-.626,4.316-3.367,5.945c0,0,3.117-3.773,2.73-6.024l-2.559-.137s-.435,4.595-3.489,6.572c0,0,3.117-4.057,2.936-6.562l-2.535.206s-.514,4.468-3.063,6.092c0,0,3.127-5.05,2.486-6.009a12.3,12.3,0,0,0-2.887.71s-.445,3.2-2.011,4.013c0,0,1.737-3.6,1.385-3.846a13.153,13.153,0,0,0-4.042,2.628A9.557,9.557,0,0,1,512,285.113a5.27,5.27,0,0,0-2.995-.313s1.243-1.4,3.7.024a12.354,12.354,0,0,1,2.691-.758,11.452,11.452,0,0,0-4.071-2.05s2.221-.636,4.742,1.957l2.54-.259s-2.823-2.447-4.443-2.858c0,0,2.363-.3,5.089,2.843l2.505.113a19.535,19.535,0,0,0-3.973-3.142s2.246.2,4.693,3.2l1.669.269s-1.688-1.654-2.217-2.085-.455-.612-.455-.612a8.04,8.04,0,0,1,3.372,2.8A19.785,19.785,0,0,0,528.312,284.824Z" transform="translate(-305.591 -169.977)"/><path class="a" d="M629.922,72.712s-14.934-11.176-20.273.93a3.185,3.185,0,0,0-.46,3.709s.558-.788,1.957.519a8.709,8.709,0,0,0,1.639,1.189,4.194,4.194,0,0,0,2.628.489h0s5.559,1.072,11.959-4.957c0,0,2.285-.729,2.5-1.165l-3.371-.582a5.629,5.629,0,0,1-2.089,3.592s2.153-3.455,1.6-3.7c-.113-.054-1.8-.245-1.8-.245s-.646,4.326-3.386,5.945c0,0,3.112-3.773,2.73-6.024l-2.559-.137s-.44,4.595-3.489,6.567c0,0,3.117-4.057,2.936-6.562l-2.53.206s-.519,4.472-3.068,6.1c0,0,3.132-5.05,2.491-6.009a12.3,12.3,0,0,0-2.887.71s-.445,3.2-2.011,4.013c0,0,1.737-3.6,1.385-3.851a13.2,13.2,0,0,0-4.042,2.633A9.513,9.513,0,0,1,613.6,73a5.236,5.236,0,0,0-3-.313s1.248-1.4,3.7.024A12.086,12.086,0,0,1,617,71.954a11.515,11.515,0,0,0-4.071-2.055s2.217-.631,4.737,1.957l2.54-.259s-2.819-2.447-4.443-2.863c0,0,2.363-.294,5.094,2.848l2.505.108a19.333,19.333,0,0,0-3.978-3.137s2.251.2,4.7,3.2l1.664.269s-1.693-1.634-2.222-2.055-.455-.607-.455-.607a8.025,8.025,0,0,1,3.372,2.8A21.125,21.125,0,0,0,629.922,72.712Z" transform="translate(-357.48 -61.656)"/><path class="a" d="M748.05,93.669S742.08,76,730.821,82.943a3.216,3.216,0,0,0-2.481,2.794s.905-.333,1.307,1.527a8.808,8.808,0,0,0,.67,1.913,4.238,4.238,0,0,0,1.879,1.9h0s3.973,4.037,12.664,2.7c0,0,2.295.695,2.716.455l-2.447-2.4a5.629,5.629,0,0,1-3.758,1.771s3.734-1.625,3.425-2.148c-.064-.1-1.341-1.214-1.341-1.214s-2.965,3.2-6.146,2.985c0,0,4.7-1.341,5.662-3.425l-2.026-1.561s-2.965,3.533-6.6,3.425c0,0,4.893-1.571,6.131-3.743l-2.2-1.267s-2.936,3.391-5.98,3.283c0,0,5.441-2.383,5.456-3.538a12.234,12.234,0,0,0-2.779-1.052s-2.182,2.383-3.915,2.168c0,0,3.464-1.982,3.318-2.388a13.128,13.128,0,0,0-4.82-.122,9.537,9.537,0,0,1,4.893-.367,5.279,5.279,0,0,0-2.295-1.957s1.82-.445,3.039,2.119a12.323,12.323,0,0,1,2.642.9,11.5,11.5,0,0,0-2.187-4s2.187.739,2.784,4.316l2.241,1.223s-.925-3.626-2.04-4.893c0,0,2.119,1.1,2.579,5.231l2.006,1.512a19.451,19.451,0,0,0-1.5-4.844s1.742,1.439,2.055,5.3l1.218,1.165s-.45-2.319-.636-2.975-.034-.7-.034-.7a8.068,8.068,0,0,1,1.189,4.218S747.879,93.8,748.05,93.669Z" transform="translate(-418.542 -68.457)"/><path class="a" d="M671.15,108.207S652.6,106.142,654.136,119.3a3.176,3.176,0,0,0,1.468,3.425s.083-.979,1.957-.538a9,9,0,0,0,2.016.2,4.208,4.208,0,0,0,2.52-.9h0s5.339-1.894,7.829-10.335c0,0,1.6-1.786,1.561-2.27l-3.205,1.184a5.457,5.457,0,0,1,0,4.154s.1-4.066-.489-4c-.122,0-1.669.7-1.669.7s1.644,4.037.108,6.851c0,0,.773-4.835-.7-6.577l-2.275,1.174s1.957,4.184.318,7.433c0,0,.636-5.079-.8-7.139l-2.08,1.468s1.82,4.115.445,6.811c0,0,.142-5.94-.9-6.444a12.729,12.729,0,0,0-2.129,2.075s1.238,2.985.3,4.477c0,0-.328-3.978-.758-4.017a13.159,13.159,0,0,0-2.153,4.316,9.528,9.528,0,0,1,1.742-4.59,5.265,5.265,0,0,0-2.74,1.248s.362-1.835,3.2-1.855c0,0,1.541-1.913,1.957-2.016a11.5,11.5,0,0,0-4.551.294s1.59-1.674,5.084-.7l2.06-1.512s-3.724-.754-5.3-.264c0,0,1.889-1.468,5.833-.122l2.217-1.179a19.483,19.483,0,0,0-5.021-.69s2.041-.979,5.667.377l1.576-.612s-2.295-.573-2.97-.68-.7-.294-.7-.294a8.05,8.05,0,0,1,4.326.7A20.016,20.016,0,0,0,671.15,108.207Z" transform="translate(-380.603 -82.124)"/><path class="a" d="M1002.76,402.377s-18.536-2.065-17,11.078a3.176,3.176,0,0,0,1.468,3.425s.083-.979,1.957-.543a8.463,8.463,0,0,0,2.016.2,4.174,4.174,0,0,0,2.52-.9h0s5.339-1.894,7.8-10.33c0,0,1.6-1.791,1.561-2.271l-3.205,1.179a5.471,5.471,0,0,1,0,4.159s.1-4.071-.489-4c-.122,0-1.669.7-1.669.7s1.644,4.037.108,6.851c0,0,.773-4.83-.7-6.577l-2.275,1.179s1.957,4.184.323,7.433c0,0,.631-5.079-.8-7.144l-2.08,1.468s1.82,4.115.445,6.807c0,0,.142-5.94-.9-6.44a12.92,12.92,0,0,0-2.129,2.075s1.243,2.985.3,4.477c0,0-.328-3.978-.758-4.017a13.16,13.16,0,0,0-2.153,4.316,9.526,9.526,0,0,1,1.742-4.59,5.221,5.221,0,0,0-2.74,1.248s.362-1.84,3.2-1.859c0,0,1.546-1.913,1.957-2.011a11.464,11.464,0,0,0-4.551.289s1.59-1.669,5.089-.695l2.055-1.512s-3.68-.695-5.28-.215c0,0,1.889-1.468,5.833-.127l2.217-1.174a19.484,19.484,0,0,0-5.021-.69s2.041-.979,5.667.377l1.576-.617s-2.295-.573-2.97-.675-.7-.294-.7-.294a8.02,8.02,0,0,1,4.326.7S1002.809,402.587,1002.76,402.377Z" transform="translate(-549.951 -232.348)"/><path class="a" d="M1060.67,437.757s-18.536-2.06-17,11.078a3.185,3.185,0,0,0,1.468,3.425s.083-.979,1.957-.538a8.641,8.641,0,0,0,2.011.2,4.228,4.228,0,0,0,2.51-.891h0s5.334-1.894,7.8-10.335c0,0,1.6-1.786,1.561-2.271l-3.205,1.179a5.471,5.471,0,0,1,0,4.159s.1-4.066-.489-4c-.122,0-1.669.7-1.669.7s1.644,4.037.108,6.851c0,0,.773-4.83-.7-6.572l-2.276,1.174s1.957,4.184.323,7.433c0,0,.631-5.079-.8-7.139l-2.08,1.468s1.82,4.115.45,6.811c0,0,.137-5.945-.905-6.444a12.919,12.919,0,0,0-2.129,2.075s1.243,2.985.3,4.477c0,0-.328-3.978-.759-4.017a13.082,13.082,0,0,0-2.148,4.316,9.551,9.551,0,0,1,1.737-4.59,5.265,5.265,0,0,0-2.74,1.248s.367-1.84,3.205-1.855c0,0,1.542-1.913,1.957-2.016a11.5,11.5,0,0,0-4.551.294s1.59-1.673,5.089-.7l2.055-1.512s-3.68-.695-5.28-.215c0,0,1.889-1.468,5.833-.122l2.217-1.179a19.485,19.485,0,0,0-5.021-.69s2.041-.979,5.666.377l1.576-.612s-2.295-.573-2.965-.68-.7-.294-.7-.294a8.05,8.05,0,0,1,4.326.7S1060.719,437.968,1060.67,437.757Z" transform="translate(-579.524 -250.416)"/><path class="a" d="M927.862,134.964s-14.934-11.171-20.273.93a3.185,3.185,0,0,0-.46,3.709s.558-.788,1.957.519a8.566,8.566,0,0,0,1.634,1.194,4.2,4.2,0,0,0,2.628.489h0s5.559,1.072,11.964-4.952c0,0,2.28-.734,2.5-1.165l-3.362-.607a5.653,5.653,0,0,1-2.089,3.592s2.148-3.455,1.59-3.7c-.113-.054-1.791-.245-1.791-.245s-.631,4.316-3.371,5.945c0,0,3.117-3.773,2.73-6.024l-2.559-.137s-.435,4.595-3.489,6.572c0,0,3.122-4.057,2.936-6.562l-2.535.206s-.489,4.468-3.063,6.092c0,0,3.132-5.05,2.486-6.009a12.3,12.3,0,0,0-2.887.71s-.44,3.2-2.006,4.013c0,0,1.732-3.6,1.38-3.846a13.154,13.154,0,0,0-4.042,2.628,9.558,9.558,0,0,1,3.827-3.073,5.27,5.27,0,0,0-2.995-.313s1.248-1.4,3.7.024a12.3,12.3,0,0,1,2.686-.758,11.452,11.452,0,0,0-4.071-2.05s2.222-.636,4.742,1.957l2.54-.259s-2.819-2.447-4.443-2.858c0,0,2.363-.3,5.089,2.843l2.51.113a19.617,19.617,0,0,0-3.978-3.142s2.251.2,4.693,3.2l1.669.269s-1.688-1.654-2.217-2.085-.45-.572-.45-.572a8.045,8.045,0,0,1,3.367,2.8A19.652,19.652,0,0,0,927.862,134.964Z" transform="translate(-509.629 -93.448)"/><path class="a" d="M953.343,291.244s-5.148-17.924-16.725-11.489a3.179,3.179,0,0,0-2.608,2.677s.92-.289,1.238,1.585a8.675,8.675,0,0,0,.587,1.957,4.2,4.2,0,0,0,1.791,2h0s3.787,4.208,12.527,3.269c0,0,2.261.793,2.691.577L950.53,289.3a5.627,5.627,0,0,1-3.831,1.6s3.8-1.468,3.5-1.992c-.059-.108-1.282-1.277-1.282-1.277s-3.1,3.063-6.273,2.706c0,0,4.761-1.125,5.808-3.151l-1.957-1.654s-3.122,3.4-6.748,3.132c0,0,4.932-1.355,6.293-3.464l-2.143-1.365s-3.107,3.254-6.122,3.009c0,0,5.544-2.138,5.613-3.288a12.215,12.215,0,0,0-2.735-1.174s-2.285,2.28-4.022,1.987c0,0,3.553-1.825,3.425-2.236a13.216,13.216,0,0,0-4.81-.343,9.547,9.547,0,0,1,4.893-.142,5.251,5.251,0,0,0-2.2-2.055s1.84-.367,2.936,2.251a12.21,12.21,0,0,1,2.6,1.018,11.444,11.444,0,0,0-2.006-4.091s2.153.832,2.589,4.433l2.182,1.326s-.763-3.67-1.82-4.962c0,0,2.065,1.189,2.344,5.339l1.957,1.6a19.406,19.406,0,0,0-1.277-4.893s1.678,1.517,1.815,5.383l1.165,1.223s-.343-2.339-.489-3,0-.758,0-.758a8.021,8.021,0,0,1,1,4.267A19.42,19.42,0,0,0,953.343,291.244Z" transform="translate(-523.572 -169.076)"/><path class="a" d="M717.106,377.495s-10-15.747-19.28-6.322a3.165,3.165,0,0,0-1.752,3.3s.807-.538,1.639,1.174a8.38,8.38,0,0,0,1.106,1.693,4.18,4.18,0,0,0,2.275,1.409h0s4.82,2.975,12.943-.391c0,0,2.393.127,2.745-.2l-2.936-1.762a5.625,5.625,0,0,1-3.23,2.618s3.239-2.447,2.8-2.9c-.083-.088-1.59-.861-1.59-.861s-2.119,3.807-5.26,4.36c0,0,4.252-2.422,4.693-4.663l-2.344-1.032s-2.04,4.135-5.593,4.893c0,0,4.355-2.686,5.065-5.094l-2.447-.7s-2.065,4-5.025,4.609c0,0,4.717-3.611,4.458-4.737a12.156,12.156,0,0,0-2.936-.357s-1.551,2.833-3.3,3.039c0,0,2.9-2.75,2.657-3.112a13.186,13.186,0,0,0-4.712,1.028,9.523,9.523,0,0,1,4.668-1.517,5.251,5.251,0,0,0-2.686-1.355s1.659-.866,3.425,1.336a12.087,12.087,0,0,1,2.784.245,11.265,11.265,0,0,0-3.078-3.362s2.3.2,3.729,3.528l2.471.656s-1.767-3.3-3.141-4.247c0,0,2.314.558,3.748,4.468l2.31.979a19.5,19.5,0,0,0-2.608-4.345s2.036.979,3.254,4.654l1.468.847s-.979-2.148-1.326-2.74-.21-.729-.21-.729a8.024,8.024,0,0,1,2.158,3.812S716.974,377.661,717.106,377.495Z" transform="translate(-402.043 -214.938)"/><path class="j" d="M851.493,212.662s-9.508-16.045-19.084-6.914a3.182,3.182,0,0,0-1.85,3.249s.817-.519,1.6,1.218a8.46,8.46,0,0,0,1.052,1.732,4.155,4.155,0,0,0,2.231,1.468h0s4.722,3.122,12.948,0c0,0,2.388.2,2.75-.117l-2.872-1.85a5.626,5.626,0,0,1-3.308,2.515s3.313-2.363,2.9-2.809c-.088-.093-1.566-.915-1.566-.915s-2.236,3.743-5.383,4.2c0,0,4.326-2.29,4.83-4.512l-2.31-1.086s-2.168,4.076-5.745,4.727c0,0,4.438-2.549,5.221-4.932l-2.417-.783s-2.192,3.915-5.167,4.453c0,0,4.825-3.464,4.6-4.595a12.085,12.085,0,0,0-2.936-.45s-1.639,2.784-3.4,2.936c0,0,2.98-2.652,2.755-3.024a13.172,13.172,0,0,0-4.742.881,9.552,9.552,0,0,1,4.712-1.37,5.26,5.26,0,0,0-2.647-1.439s1.688-.817,3.425,1.439a12.4,12.4,0,0,1,2.774.333,11.705,11.705,0,0,0-2.97-3.455s2.29.264,3.616,3.641l2.447.734s-1.659-3.357-3.009-4.345c0,0,2.3.631,3.611,4.58l2.275,1.062a19.66,19.66,0,0,0-2.447-4.4s2,1.042,3.112,4.751l1.434.891s-.92-2.178-1.243-2.779-.186-.734-.186-.734a8.039,8.039,0,0,1,2.04,3.875S851.351,212.823,851.493,212.662Z" transform="translate(-470.728 -130.56)"/><path class="j" d="M733.991,274.781s.489-18.643-12.463-16.016a3.189,3.189,0,0,0-3.3,1.766s.979,0,.7,1.884a8.585,8.585,0,0,0-.029,2.026,4.183,4.183,0,0,0,1.1,2.447h0s2.334,5.158,10.951,6.909c0,0,1.913,1.444,2.393,1.365l-1.468-3.093a5.648,5.648,0,0,1-4.14.367s4.061-.24,3.949-.837c0-.122-.842-1.61-.842-1.61s-3.885,1.982-6.8.68c0,0,4.893.367,6.493-1.243l-1.365-2.168s-4,2.29-7.379.94c0,0,5.114.206,7.051-1.395l-1.629-1.957s-3.949,2.163-6.748,1.018c0,0,5.931-.357,6.361-1.439a12.69,12.69,0,0,0-2.251-1.957s-2.867,1.468-4.433.675c0,0,3.915-.656,3.939-1.091a13.132,13.132,0,0,0-4.482-1.781,9.527,9.527,0,0,1,4.722,1.351A5.26,5.26,0,0,0,722.864,259s1.864.21,2.119,3.034a12.168,12.168,0,0,1,2.173,1.762,11.444,11.444,0,0,0-.675-4.507s1.8,1.444,1.125,5.006l1.678,1.928s.382-3.729-.23-5.28c0,0,1.6,1.757.617,5.8l1.355,2.109a19.512,19.512,0,0,0,.269-5.06s1.135,1.957.1,5.681l.744,1.517s.377-2.334.426-3.014.235-.724.235-.724a8.034,8.034,0,0,1-.338,4.37S733.776,274.845,733.991,274.781Z" transform="translate(-413.379 -158.94)"/><ellipse class="a" cx="13.178" cy="2.226" rx="13.178" ry="2.226" transform="translate(328.847 348.283)"/><ellipse class="a" cx="13.178" cy="2.226" rx="13.178" ry="2.226" transform="translate(280.81 382.085)"/><ellipse class="a" cx="13.178" cy="2.226" rx="13.178" ry="2.226" transform="translate(32.396 364.768)"/><ellipse class="a" cx="13.178" cy="2.226" rx="13.178" ry="2.226" transform="translate(380.76 379.859)"/><ellipse class="j" cx="19.676" cy="3.327" rx="19.676" ry="3.327" transform="translate(387.983 350.509)"/><path class="j" d="M926.006,757.542a5.682,5.682,0,0,0,1.874-2.828,2.513,2.513,0,0,0-1.307-2.882c-1.2-.46-2.491.372-3.469,1.214s-2.089,1.806-3.367,1.629a5.138,5.138,0,0,0,1.585-4.8,2.011,2.011,0,0,0-.44-.979c-.67-.714-1.879-.406-2.681.157-2.545,1.791-3.254,5.246-3.269,8.358a15.709,15.709,0,0,1-.044-3.425,3.514,3.514,0,0,0-1.3-3.044,3.871,3.871,0,0,0-1.957-.489,4.088,4.088,0,0,0-3.2.91,3.154,3.154,0,0,0,.122,3.915,12.655,12.655,0,0,0,3.313,2.652,7.4,7.4,0,0,1,2.368,2.256,2.3,2.3,0,0,1,.171.4h7.174a19.789,19.789,0,0,0,4.424-3.044Z" transform="translate(-510.19 -409.152)"/><path class="m" d="M170.29,779.632s7.511-.23,9.787-1.845,11.563-3.538,12.126-.949,11.294,12.865,2.809,12.933-19.715-1.321-21.976-2.7S170.29,779.632,170.29,779.632Z" transform="translate(-133.563 -422.987)"/><path class="n" d="M195.153,793.1c-8.485.069-19.715-1.321-21.976-2.7-1.722-1.047-2.408-4.81-2.637-6.547h-.25s.489,6.063,2.735,7.438,13.491,2.77,21.976,2.7c2.447,0,3.293-.891,3.249-2.182C197.908,792.594,196.973,793.084,195.153,793.1Z" transform="translate(-133.563 -427.215)"/></g></svg>