<svg xmlns="http://www.w3.org/2000/svg" width="22.75" height="26" viewBox="0 0 22.75 26"><path class="mainPath" d="M22.141,1.625H21.125V-21.531a1.175,1.175,0,0,0-.355-.863,1.175,1.175,0,0,0-.863-.355H2.844a1.175,1.175,0,0,0-.863.355,1.175,1.175,0,0,0-.355.863V1.625H.609A.588.588,0,0,0,.178,1.8.588.588,0,0,0,0,2.234V3.25H22.75V2.234a.607.607,0,0,0-.609-.609ZM6.5-18.891a.588.588,0,0,1,.178-.432.588.588,0,0,1,.432-.178H9.141a.588.588,0,0,1,.432.178.588.588,0,0,1,.178.432v2.031a.588.588,0,0,1-.178.432.588.588,0,0,1-.432.178H7.109a.588.588,0,0,1-.432-.178.588.588,0,0,1-.178-.432Zm0,4.875a.588.588,0,0,1,.178-.432.588.588,0,0,1,.432-.178H9.141a.588.588,0,0,1,.432.178.588.588,0,0,1,.178.432v2.031a.588.588,0,0,1-.178.432.588.588,0,0,1-.432.178H7.109a.588.588,0,0,1-.432-.178.588.588,0,0,1-.178-.432ZM9.141-6.5H7.109a.588.588,0,0,1-.432-.178A.588.588,0,0,1,6.5-7.109V-9.141a.588.588,0,0,1,.178-.432.588.588,0,0,1,.432-.178H9.141a.588.588,0,0,1,.432.178.588.588,0,0,1,.178.432v2.031a.588.588,0,0,1-.178.432A.588.588,0,0,1,9.141-6.5ZM13,1.625H9.75V-2.641a.588.588,0,0,1,.178-.432.588.588,0,0,1,.432-.178h2.031a.588.588,0,0,1,.432.178A.588.588,0,0,1,13-2.641Zm3.25-8.734a.588.588,0,0,1-.178.432.588.588,0,0,1-.432.178H13.609a.588.588,0,0,1-.432-.178A.588.588,0,0,1,13-7.109V-9.141a.588.588,0,0,1,.178-.432.588.588,0,0,1,.432-.178h2.031a.588.588,0,0,1,.432.178.588.588,0,0,1,.178.432Zm0-4.875a.588.588,0,0,1-.178.432.588.588,0,0,1-.432.178H13.609a.588.588,0,0,1-.432-.178A.588.588,0,0,1,13-11.984v-2.031a.588.588,0,0,1,.178-.432.588.588,0,0,1,.432-.178h2.031a.588.588,0,0,1,.432.178.588.588,0,0,1,.178.432Zm0-4.875a.588.588,0,0,1-.178.432.588.588,0,0,1-.432.178H13.609a.588.588,0,0,1-.432-.178A.588.588,0,0,1,13-16.859v-2.031a.588.588,0,0,1,.178-.432.588.588,0,0,1,.432-.178h2.031a.588.588,0,0,1,.432.178.588.588,0,0,1,.178.432Z" transform="translate(0 22.75)" fill="#363636"/></svg>