<svg xmlns="http://www.w3.org/2000/svg" width="93.798" height="94.066" viewBox="0 0 93.798 94.066">
  <g id="portfolio" transform="translate(-0.73)">
    <path id="Path_1316" data-name="Path 1316" d="M94.528,17.764A12.531,12.531,0,0,0,85.07,5.618,9.889,9.889,0,0,0,76.112,0H37.85A9.924,9.924,0,0,0,29.09,5.235H13.259A12.543,12.543,0,0,0,.73,17.764V81.538A12.542,12.542,0,0,0,13.258,94.066H26.526a1.378,1.378,0,0,0,0-2.756H13.258a9.783,9.783,0,0,1-9.772-9.772V35.244a9.783,9.783,0,0,1,9.772-9.772H35.132A9.743,9.743,0,0,1,43.3,29.88l5,7.611a12.491,12.491,0,0,0,10.472,5.652H82a9.783,9.783,0,0,1,9.772,9.772V81.538A9.783,9.783,0,0,1,82,91.311H32.038a1.378,1.378,0,1,0,0,2.756H82A12.542,12.542,0,0,0,94.528,81.538ZM3.486,27.417V17.764a9.784,9.784,0,0,1,9.773-9.773H28.1A9.977,9.977,0,0,0,27.9,9.945v3.131H24.17a9.956,9.956,0,0,0-9.937,9.639h-.974a12.509,12.509,0,0,0-9.772,4.7ZM50.6,35.979l-5-7.611a12.491,12.491,0,0,0-10.472-5.652H16.988a7.2,7.2,0,0,1,7.181-6.884H62.432a7.2,7.2,0,0,1,7.189,7.191V40.388H58.772A9.744,9.744,0,0,1,50.6,35.979Zm35.453,5.087V19.129a1.378,1.378,0,1,0-2.756,0V40.456a12.626,12.626,0,0,0-1.3-.068H72.377V23.023a9.957,9.957,0,0,0-9.945-9.947H30.66V9.945A7.184,7.184,0,0,1,37.85,2.756H76.112A7.179,7.179,0,0,1,83.3,9.945v3.8a1.378,1.378,0,1,0,2.756,0v-3.8a10,10,0,0,0-.063-1.1,9.781,9.781,0,0,1,5.779,8.922V45.09a12.57,12.57,0,0,0-5.716-4.024Z" fill="#d03827"/>
    <path id="Path_1317" data-name="Path 1317" d="M294.673,123.794a1.378,1.378,0,0,0-1.864.57l-5.046,9.5-3.489-4.343a1.378,1.378,0,1,0-2.148,1.726l4.8,5.972a1.378,1.378,0,0,0,1.074.515c.043,0,.086,0,.13-.006a1.378,1.378,0,0,0,1.087-.725l6.028-11.341a1.378,1.378,0,0,0-.57-1.864Z" transform="translate(-229.449 -100.919)" fill="#d03827"/>
    <path id="Path_1318" data-name="Path 1318" d="M59.94,268.906h23.5a1.378,1.378,0,1,0,0-2.756H59.94a1.378,1.378,0,1,0,0,2.756Z" transform="translate(-47.207 -217.252)" fill="#d03827"/>
    <path id="Path_1319" data-name="Path 1319" d="M59.94,296.657h23.5a1.378,1.378,0,1,0,0-2.756H59.94a1.378,1.378,0,1,0,0,2.756Z" transform="translate(-47.207 -239.904)" fill="#d03827"/>
  </g>
</svg>
