<svg xmlns="http://www.w3.org/2000/svg" width="22.75" height="26" viewBox="0 0 22.75 26"><path class="mainPath" d="M11.375-9.75a6.445,6.445,0,0,0,3.275-.863,6.324,6.324,0,0,0,2.361-2.361,6.445,6.445,0,0,0,.863-3.275,6.445,6.445,0,0,0-.863-3.275,6.324,6.324,0,0,0-2.361-2.361,6.445,6.445,0,0,0-3.275-.863,6.445,6.445,0,0,0-3.275.863,6.324,6.324,0,0,0-2.361,2.361,6.445,6.445,0,0,0-.863,3.275,6.445,6.445,0,0,0,.863,3.275A6.324,6.324,0,0,0,8.1-10.613,6.445,6.445,0,0,0,11.375-9.75ZM16.25-8.074l-2.437,9.7L12.188-5.281l1.625-2.844H8.938l1.625,2.844L8.938,1.625,6.5-8.074a6.4,6.4,0,0,0-3.275.99A6.858,6.858,0,0,0,.863-4.621,6.583,6.583,0,0,0,0-1.32V.813A2.351,2.351,0,0,0,.711,2.539a2.351,2.351,0,0,0,1.727.711H20.313a2.351,2.351,0,0,0,1.727-.711A2.351,2.351,0,0,0,22.75.813V-1.32a6.583,6.583,0,0,0-.863-3.3,6.858,6.858,0,0,0-2.361-2.463A6.4,6.4,0,0,0,16.25-8.074Z" transform="translate(0 22.75)" fill="#363636"/></svg>