<svg id="XMLID_1585_" xmlns="http://www.w3.org/2000/svg" width="53.084" height="53.084" viewBox="0 0 53.084 53.084">
  <g id="XMLID_569_">
    <path id="XMLID_570_" d="M41.037,344.464a1.037,1.037,0,1,0-.733-.3A1.044,1.044,0,0,0,41.037,344.464Z" transform="translate(-35.853 -306.891)" fill="#d03827"/>
    <path id="XMLID_606_" d="M52.047,33.592H49.611V17.626h1.807a1.037,1.037,0,0,0,.9-1.555L46.569,6.117a1.037,1.037,0,0,0-1.8,0L39.026,16.07a1.037,1.037,0,0,0,.9,1.555h1.807v8.709a1.037,1.037,0,1,0,2.074,0V16.589a1.037,1.037,0,0,0-1.037-1.037H41.72l3.951-6.843,3.951,6.843H48.574a1.037,1.037,0,0,0-1.037,1.037v17H39.295a1.037,1.037,0,0,0-1.037,1.037v3.94H26.542a1.037,1.037,0,0,0-1.037,1.037v2.281H19.767a3.3,3.3,0,0,0,.243-1.244V28.807a5.19,5.19,0,0,0-5.184-5.184H13.6V22.36a3.479,3.479,0,0,0,1.427.305h5.379a3.071,3.071,0,0,0,0-6.142H17.74V15.356a6.854,6.854,0,0,0-5-6.59,4.8,4.8,0,0,0,1.051-3V4.82a4.82,4.82,0,0,0-9.641,0v.946A4.8,4.8,0,0,0,5.164,8.722,6.854,6.854,0,0,0,0,15.356v5.373A5.184,5.184,0,0,0,4.147,25.8v6.588a1.037,1.037,0,0,0,2.074,0V25.7h8.606a3.114,3.114,0,0,1,3.11,3.11V40.642a1.244,1.244,0,1,1-2.488,0V30.058a1.037,1.037,0,0,0-1.037-1.037H9.739A1.037,1.037,0,0,0,8.7,30.058V44.793a1.241,1.241,0,1,1-2.482,0v-4.11a1.037,1.037,0,0,0-2.074,0v4.11a3.3,3.3,0,0,0,.242,1.241H1.037A1.037,1.037,0,0,0,0,47.07v4.977a1.037,1.037,0,0,0,1.037,1.037h51.01a1.037,1.037,0,0,0,1.037-1.037V34.629A1.037,1.037,0,0,0,52.047,33.592ZM6.221,4.82a2.747,2.747,0,1,1,5.493,0v.946a2.747,2.747,0,1,1-5.493,0ZM5.184,15.372a1.037,1.037,0,0,0-1.037,1.037v7.246a3.106,3.106,0,0,1-2.074-2.926V15.356a4.775,4.775,0,0,1,4.769-4.769H10.9a4.775,4.775,0,0,1,4.769,4.769v2.2A1.037,1.037,0,0,0,16.7,18.6h3.7a1,1,0,0,1,0,2H15.027A1.428,1.428,0,0,1,13.6,19.165V16.409a1.037,1.037,0,0,0-2.074,0v7.214H6.221V16.409A1.037,1.037,0,0,0,5.184,15.372Zm5.592,29.421V31.1h2.6v9.547a3.3,3.3,0,0,0,.249,1.259,1.036,1.036,0,0,0-.871,1.022v3.11H10.534A3.3,3.3,0,0,0,10.776,44.793Zm-8.7,3.315H12.753v2.9H2.074ZM14.826,47.07V43.96H25.505v7.05H14.826Zm12.753-4.147V40.642H38.258V51.01H27.579ZM51.01,51.01H40.331V35.666H51.01Z" fill="#d03827"/>
    <path id="XMLID_1117_" d="M404.27,285.77a1.036,1.036,0,1,0-.733.3A1.044,1.044,0,0,0,404.27,285.77Z" transform="translate(-360.769 -254.555)" fill="#d03827"/>
  </g>
</svg>
