<svg id="buy" xmlns="http://www.w3.org/2000/svg" width="53.084" height="53.084" viewBox="0 0 53.084 53.084">
  <g id="Group_1603" data-name="Group 1603" transform="translate(13.271 25.436)">
    <g id="Group_1602" data-name="Group 1602">
      <path id="Path_1269" data-name="Path 1269" d="M156.754,245.333v24.33a1.106,1.106,0,0,1-1.106,1.106h-24.33a1.106,1.106,0,0,1-1.106-1.106V257.5H128v12.165a3.318,3.318,0,0,0,3.318,3.318h24.33a3.318,3.318,0,0,0,3.318-3.318v-24.33Z" transform="translate(-128 -245.333)" fill="#d03827"/>
    </g>
  </g>
  <g id="Group_1605" data-name="Group 1605" transform="translate(3.318 29.86)">
    <g id="Group_1604" data-name="Group 1604">
      <path id="Path_1270" data-name="Path 1270" d="M49.695,288H39.741A7.751,7.751,0,0,0,32,295.741h2.212a5.536,5.536,0,0,1,5.53-5.53h9.953a2.212,2.212,0,1,1,0,4.424H39.741v2.212h9.953a4.424,4.424,0,0,0,0-8.847Z" transform="translate(-32 -288)" fill="#d03827"/>
    </g>
  </g>
  <g id="Group_1607" data-name="Group 1607" transform="translate(0 33.177)">
    <g id="Group_1606" data-name="Group 1606">
      <path id="Path_1271" data-name="Path 1271" d="M1.106,320A1.106,1.106,0,0,0,0,321.106v1.106H5.53V320Z" transform="translate(0 -320)" fill="#d03827"/>
    </g>
  </g>
  <g id="Group_1609" data-name="Group 1609" transform="translate(3.318 43.131)">
    <g id="Group_1608" data-name="Group 1608">
      <path id="Path_1272" data-name="Path 1272" d="M39.741,421.53a5.536,5.536,0,0,1-5.53-5.53H32a7.751,7.751,0,0,0,7.741,7.741h3.318V421.53H39.741Z" transform="translate(-32 -416)" fill="#d03827"/>
    </g>
  </g>
  <g id="Group_1611" data-name="Group 1611" transform="translate(0 45.342)">
    <g id="Group_1610" data-name="Group 1610">
      <path id="Path_1273" data-name="Path 1273" d="M0,437.333v1.106a1.106,1.106,0,0,0,1.106,1.106H5.53v-2.212H0Z" transform="translate(0 -437.333)" fill="#d03827"/>
    </g>
  </g>
  <g id="Group_1613" data-name="Group 1613" transform="translate(29.86 2.212)">
    <g id="Group_1612" data-name="Group 1612">
      <path id="Path_1274" data-name="Path 1274" d="M300.165,21.333h-7.741a4.424,4.424,0,0,0,0,8.847h9.953V27.968h-9.953a2.212,2.212,0,0,1,0-4.424h7.741a5.536,5.536,0,0,1,5.53,5.53h2.212A7.751,7.751,0,0,0,300.165,21.333Z" transform="translate(-288 -21.333)" fill="#d03827"/>
    </g>
  </g>
  <g id="Group_1615" data-name="Group 1615" transform="translate(47.554 5.53)">
    <g id="Group_1614" data-name="Group 1614">
      <path id="Path_1275" data-name="Path 1275" d="M463.09,53.333h-4.424v2.212h5.53V54.439A1.106,1.106,0,0,0,463.09,53.333Z" transform="translate(-458.666 -53.333)" fill="#d03827"/>
    </g>
  </g>
  <g id="Group_1617" data-name="Group 1617" transform="translate(34.283 15.483)">
    <g id="Group_1616" data-name="Group 1616">
      <path id="Path_1276" data-name="Path 1276" d="M343.938,149.333a5.536,5.536,0,0,1-5.53,5.53h-7.741v2.212h7.741a7.751,7.751,0,0,0,7.741-7.741Z" transform="translate(-330.667 -149.333)" fill="#d03827"/>
    </g>
  </g>
  <g id="Group_1619" data-name="Group 1619" transform="translate(47.554 17.695)">
    <g id="Group_1618" data-name="Group 1618">
      <path id="Path_1277" data-name="Path 1277" d="M458.667,170.666v2.212h4.424a1.106,1.106,0,0,0,1.106-1.106v-1.106h-5.53Z" transform="translate(-458.667 -170.666)" fill="#d03827"/>
    </g>
  </g>
  <g id="Group_1621" data-name="Group 1621" transform="translate(13.273 0)">
    <g id="Group_1620" data-name="Group 1620" transform="translate(0 0)">
      <path id="Path_1278" data-name="Path 1278" d="M154.062,9.649l-2.128.6A11.034,11.034,0,1,1,147.321,4l1.208-1.853a13.269,13.269,0,1,0,5.533,7.5Z" transform="translate(-128.023 0)" fill="#d03827"/>
    </g>
  </g>
  <g id="Group_1623" data-name="Group 1623" transform="translate(21.012 7.741)">
    <g id="Group_1622" data-name="Group 1622">
      <path id="Path_1279" data-name="Path 1279" d="M205.985,76.879h4.424V74.667h-4.424a3.318,3.318,0,1,0,0,6.635h4.424V79.091h-4.424a1.106,1.106,0,1,1,0-2.212Z" transform="translate(-202.667 -74.667)" fill="#d03827"/>
    </g>
  </g>
  <g id="Group_1625" data-name="Group 1625" transform="translate(21.012 12.165)">
    <g id="Group_1624" data-name="Group 1624">
      <path id="Path_1280" data-name="Path 1280" d="M210.407,117.333h-4.424v2.212h4.424a1.106,1.106,0,0,1,0,2.212h-4.424a1.106,1.106,0,0,1-1.106-1.106h-2.212a3.318,3.318,0,0,0,3.318,3.318h4.424a3.318,3.318,0,0,0,0-6.635Z" transform="translate(-202.666 -117.333)" fill="#d03827"/>
    </g>
  </g>
  <g id="Group_1627" data-name="Group 1627" transform="translate(25.436 17.695)">
    <g id="Group_1626" data-name="Group 1626">
      <rect id="Rectangle_1712" data-name="Rectangle 1712" width="2.212" height="3.318" fill="#d03827"/>
    </g>
  </g>
  <g id="Group_1629" data-name="Group 1629" transform="translate(25.436 5.53)">
    <g id="Group_1628" data-name="Group 1628">
      <rect id="Rectangle_1713" data-name="Rectangle 1713" width="2.212" height="3.318" fill="#d03827"/>
    </g>
  </g>
  <g id="Group_1631" data-name="Group 1631" transform="translate(13.271 23.224)">
    <g id="Group_1630" data-name="Group 1630">
      <path id="Path_1281" data-name="Path 1281" d="M131.318,224A3.318,3.318,0,0,0,128,227.318v4.424h2.212v-4.424a1.106,1.106,0,0,1,1.106-1.106h4.424V224Z" transform="translate(-128 -224)" fill="#d03827"/>
    </g>
  </g>
  <g id="Group_1633" data-name="Group 1633" transform="translate(18.801 24.33)">
    <g id="Group_1632" data-name="Group 1632">
      <rect id="Rectangle_1714" data-name="Rectangle 1714" width="2.212" height="6.635" fill="#d03827"/>
    </g>
  </g>
  <g id="Group_1635" data-name="Group 1635" transform="translate(24.33 25.436)">
    <g id="Group_1634" data-name="Group 1634">
      <path id="Path_1282" data-name="Path 1282" d="M236.879,245.333v7.741h-2.212v2.212h3.318a1.106,1.106,0,0,0,1.106-1.106v-8.847Z" transform="translate(-234.667 -245.333)" fill="#d03827"/>
    </g>
  </g>
  <g id="Group_1637" data-name="Group 1637" transform="translate(33.177 46.448)">
    <g id="Group_1636" data-name="Group 1636">
      <rect id="Rectangle_1715" data-name="Rectangle 1715" width="6.635" height="2.212" fill="#d03827"/>
    </g>
  </g>
  <g id="Group_1639" data-name="Group 1639" transform="translate(33.177 42.025)">
    <g id="Group_1638" data-name="Group 1638">
      <rect id="Rectangle_1716" data-name="Rectangle 1716" width="6.635" height="2.212" fill="#d03827"/>
    </g>
  </g>
</svg>
