<svg xmlns="http://www.w3.org/2000/svg" width="52" height="52" viewBox="0 0 52 52">
  <g id="XMLID_1378_" transform="translate(0 -0.002)">
    <g id="XMLID_43_" transform="translate(0 0.002)">
      <path id="XMLID_44_" d="M199.048,210.978a1.015,1.015,0,1,0,.718-.3A1.023,1.023,0,0,0,199.048,210.978Z" transform="translate(-178.564 -189.283)" fill="#d03827"/>
      <path id="XMLID_69_" d="M50.984,21.4H25.264a1.016,1.016,0,0,0,0,2.031h24.7V46.354H20.278a3.882,3.882,0,0,0-.812-1.055,3.9,3.9,0,0,0,.481-.53H44.167a1.016,1.016,0,0,0,1.016-1.016,2.177,2.177,0,0,1,2.174-2.174,1.016,1.016,0,0,0,1.016-1.016V29.221a1.016,1.016,0,0,0-1.016-1.016,2.177,2.177,0,0,1-2.174-2.174,1.016,1.016,0,0,0-1.016-1.016H13.3a1.016,1.016,0,0,0-1.016,1.016,2.177,2.177,0,0,1-2.174,2.174A1.016,1.016,0,0,0,9.1,29.221v3.687H7.516V27.3l3.87-3.87h5.753a1.016,1.016,0,0,0,0-2.031H13.417L21.1,13.712l3.6,3.6a1.016,1.016,0,0,0,1.436,0l8.279-8.279,1.458,1.458a1.016,1.016,0,0,0,1.714-.518L39.35,1.218a1.016,1.016,0,0,0-1.2-1.2L29.4,1.783A1.016,1.016,0,0,0,28.884,3.5l1.184,1.184L25.42,9.329l-3.6-3.6a1.016,1.016,0,0,0-1.436,0l-6.1,6.1a1.016,1.016,0,0,0,1.436,1.436L21.1,7.886l3.6,3.6a1.016,1.016,0,0,0,1.436,0L32.222,5.4a1.016,1.016,0,0,0,0-1.436L31.66,3.4l5.4-1.086-1.086,5.4-.836-.836a1.016,1.016,0,0,0-1.436,0L25.42,15.155l-3.6-3.6a1.016,1.016,0,0,0-1.436,0L3.964,27.979,2.488,26.5l7.487-7.487a1.016,1.016,0,1,0-1.436-1.436l-8.2,8.2a1.016,1.016,0,0,0,0,1.436l2.913,2.913a1.016,1.016,0,0,0,1.436,0l.8-.8v3.576H3.859a3.857,3.857,0,0,0-2.606,6.7,3.853,3.853,0,0,0,0,5.688A3.857,3.857,0,0,0,3.859,52H50.984A1.016,1.016,0,0,0,52,50.986V22.415A1.016,1.016,0,0,0,50.984,21.4ZM11.128,30.113a4.221,4.221,0,0,0,3.066-3.066H43.275a4.221,4.221,0,0,0,3.066,3.066v9.558a4.221,4.221,0,0,0-3.066,3.066H20.707c.007-.093.011-.187.011-.282a3.85,3.85,0,0,0-1.253-2.844,3.857,3.857,0,0,0-2.606-6.7H11.128V30.113Zm-9.1,6.654a1.83,1.83,0,0,1,1.828-1.828h13a1.828,1.828,0,1,1,0,3.656h-13A1.83,1.83,0,0,1,2.031,36.767Zm0,5.688a1.83,1.83,0,0,1,1.828-1.828h13a1.828,1.828,0,1,1,0,3.656h-13A1.83,1.83,0,0,1,2.031,42.455ZM6.5,49.97H3.859a1.828,1.828,0,0,1,0-3.656h13a1.828,1.828,0,0,1,0,3.656Zm43.469,0H20.257a3.833,3.833,0,0,0,.453-1.585H49.969Z" transform="translate(0 -0.002)" fill="#d03827"/>
      <path id="XMLID_74_" d="M372.728,335.568h1.447a1.016,1.016,0,1,0,0-2.031h-1.447a1.016,1.016,0,0,0,0,2.031Z" transform="translate(-333.96 -299.662)" fill="#d03827"/>
      <path id="XMLID_77_" d="M234.769,301.085a5.411,5.411,0,1,0-5.41-5.411A5.416,5.416,0,0,0,234.769,301.085Zm0-8.79a3.379,3.379,0,1,1-3.378,3.379A3.383,3.383,0,0,1,234.769,292.3Z" transform="translate(-206.065 -260.784)" fill="#d03827"/>
      <path id="XMLID_78_" d="M110.576,144.021a1.016,1.016,0,1,0-.718-.3A1.019,1.019,0,0,0,110.576,144.021Z" transform="translate(-98.433 -127.569)" fill="#d03827"/>
    </g>
  </g>
</svg>
