<svg xmlns="http://www.w3.org/2000/svg" width="22.75" height="22.75" viewBox="0 0 22.75 22.75"><g transform="translate(-663.825 -465.595)"><path class="mainPath" d="M685.71,465.6a6.518,6.518,0,0,1,1.1.427,2.62,2.62,0,0,1,1.333,2.337c.014,2.887.009,5.775,0,8.663a2.751,2.751,0,0,1-2.679,2.74c-2.5.026-4.991.013-7.486.01a.714.714,0,0,0-.467.153c-.788.6-1.585,1.193-2.377,1.79a.774.774,0,0,1-.615.19.649.649,0,0,1-.544-.587c-.008-.081-.008-.163-.008-.244q0-6.264,0-12.528a2.773,2.773,0,0,1,1.66-2.7,5.714,5.714,0,0,1,.748-.249Zm-4.666,4.893c1.191,0,2.382,0,3.574,0a.641.641,0,0,0,.655-.517.632.632,0,0,0-.384-.74,1.2,1.2,0,0,0-.412-.058q-3.409-.005-6.816,0a1.984,1.984,0,0,0-.265.015.61.61,0,0,0-.528.444.648.648,0,0,0,.646.858C678.691,470.491,679.867,470.488,681.044,470.488Zm.036,1.541H679.3c-.607,0-1.213-.008-1.82,0a.657.657,0,1,0,.054,1.312l7.059,0a1.067,1.067,0,0,0,.155-.013.636.636,0,0,0,.518-.484.648.648,0,0,0-.661-.815C683.432,472.026,682.256,472.029,681.08,472.029Zm-2.129,2.85c-.466,0-.932,0-1.4,0a.677.677,0,0,0-.724.651.669.669,0,0,0,.68.674q1.441.018,2.883,0a.641.641,0,0,0,.659-.684.654.654,0,0,0-.7-.639C679.882,474.876,679.416,474.879,678.951,474.879Z" transform="translate(-1.582)" fill="#363636"/><path class="mainPath" d="M663.825,488.365a8.639,8.639,0,0,1,.272-1.023,4.133,4.133,0,0,1,3.344-2.712c.076-.013.152-.035.264-.062a3.154,3.154,0,0,1-2.786-3.327,3.122,3.122,0,0,1,3.191-2.96,3.153,3.153,0,0,1,.336,6.282c.329.08.647.132.947.235a4.23,4.23,0,0,1,2.909,4c.007.274.008.548,0,.822a.672.672,0,0,1-.72.7c-2.348,0-4.7,0-7.042,0a.75.75,0,0,1-.716-.491Z" transform="translate(0 -1.977)" fill="#363636"/></g></svg>