<svg xmlns="http://www.w3.org/2000/svg" width="16.993" height="19.55" viewBox="0 0 16.993 19.55">
  <path id="Path_3044" data-name="Path 3044" d="M688.034,465.6a7.809,7.809,0,0,1,1.324.512,3.138,3.138,0,0,1,1.6,2.8c.016,3.459.011,6.918,0,10.378a3.3,3.3,0,0,1-3.21,3.283c-2.989.031-5.979.015-8.968.012a.856.856,0,0,0-.559.183c-.944.721-1.9,1.429-2.848,2.144a.928.928,0,0,1-.736.228.777.777,0,0,1-.652-.7c-.009-.1-.01-.2-.01-.292q0-7.5,0-15.008a3.322,3.322,0,0,1,1.989-3.237,6.853,6.853,0,0,1,.9-.3Zm-5.59,5.861c1.427,0,2.854,0,4.282,0a.767.767,0,0,0,.785-.619.757.757,0,0,0-.46-.887,1.443,1.443,0,0,0-.494-.07q-4.084-.006-8.165,0a2.38,2.38,0,0,0-.318.018.731.731,0,0,0-.633.532.777.777,0,0,0,.774,1.028C679.625,471.461,681.035,471.458,682.444,471.457Zm.043,1.847h-2.128c-.727,0-1.453-.009-2.18,0a.787.787,0,1,0,.065,1.571l8.456,0a1.275,1.275,0,0,0,.186-.015.762.762,0,0,0,.621-.579.776.776,0,0,0-.792-.977C685.305,473.3,683.9,473.3,682.487,473.3Zm-2.551,3.414c-.558,0-1.117,0-1.675,0a.811.811,0,0,0-.868.78.8.8,0,0,0,.815.808q1.726.021,3.454,0a.768.768,0,0,0,.79-.819.784.784,0,0,0-.842-.765C681.052,476.714,680.493,476.717,679.936,476.717Z" transform="translate(-673.972 -465.595)" fill="#363636"/>
</svg>
