<svg id="Group_3730" data-name="Group 3730" xmlns="http://www.w3.org/2000/svg" xmlns:xlink="http://www.w3.org/1999/xlink" width="23.144" height="26.081" viewBox="0 0 23.144 26.081">
  <defs>
    <clipPath id="clip-path1">
      <rect id="Rectangle_2807" data-name="Rectangle 2807" width="23.144" height="26.081" fill="#c20000"/>
    </clipPath>
  </defs>
  <g id="Group_3729" data-name="Group 3729" clip-path="url(#clip-path1)">
    <path id="Path_703" data-name="Path 703" d="M14.836,0a.793.793,0,0,1,.483,1.091.75.75,0,0,1-.632.449,1.213,1.213,0,0,1-.127,0c-.681.011-.681.011-.681.705,0,.263.012.527,0,.789a.287.287,0,0,0,.27.346,10.846,10.846,0,0,1,3.111,1.225A10.7,10.7,0,0,1,18.9,5.763c.129.111.215.124.337-.007q.365-.39.755-.756c.133-.125.123-.218-.007-.332a4.606,4.606,0,0,1-.342-.341.789.789,0,0,1,1.1-1.133c.308.279.594.581.888.875.426.426.855.848,1.272,1.282a.753.753,0,0,1,.188.843.777.777,0,0,1-.648.507.767.767,0,0,1-.591-.179,1.71,1.71,0,0,1-.168-.155c-.409-.4-.409-.4-.808-.006-.168.168-.329.344-.506.5-.136.121-.146.207-.022.353a11.149,11.149,0,0,1,1.777,2.893A11.63,11.63,0,0,1,23,13.951a10.921,10.921,0,0,1-1.315,5.979,11.107,11.107,0,0,1-8.241,5.975A11.04,11.04,0,0,1,3.165,22.39a11.048,11.048,0,0,1-3-6.487A11.331,11.331,0,0,1,1.752,8.614,9.265,9.265,0,0,1,2.782,7.2c.127-.143.112-.231-.022-.355-.255-.236-.5-.484-.739-.737-.106-.111-.182-.12-.29,0a4.376,4.376,0,0,1-.443.419A.759.759,0,0,1,.214,6.447a.763.763,0,0,1,0-1.062Q1.3,4.273,2.409,3.19a.786.786,0,0,1,1.085,0,.772.772,0,0,1,.05,1.081,5.661,5.661,0,0,1-.44.458c-.084.083-.089.148,0,.233.279.272.557.546.828.827.115.12.187.047.276-.028A11.37,11.37,0,0,1,7.054,4a9.535,9.535,0,0,1,1.882-.614.313.313,0,0,0,.3-.377c-.018-.415-.009-.831,0-1.246,0-.163-.057-.234-.224-.224s-.305,0-.458,0A.772.772,0,0,1,7.733.924.783.783,0,0,1,8.2.035L8.271,0Zm5.078,14.565a8.359,8.359,0,1,0-8.351,8.352,8.34,8.34,0,0,0,8.351-8.352" transform="translate(0)" fill="#c20000"/>
    <path id="Path_704" data-name="Path 704" d="M98.337,150.284a6.768,6.768,0,0,1,4.074,1.362c.19.138.2.236.026.386a2.512,2.512,0,0,0-.336.347.736.736,0,0,0,.039,1,.707.707,0,0,0,.971.045,3.379,3.379,0,0,0,.4-.385c.123-.134.2-.129.314.021a6.741,6.741,0,0,1,.034,8.188c-.133.184-.225.219-.381.033a2.363,2.363,0,0,0-.388-.365.7.7,0,0,0-.95.054.729.729,0,0,0-.06.975,3.41,3.41,0,0,0,.386.4c.13.12.138.2-.014.319A6.756,6.756,0,0,1,99.277,164a6.671,6.671,0,0,1-4.989-1.289c-.254-.185-.252-.185-.03-.413s.477-.415.484-.773a.7.7,0,0,0-.37-.674.666.666,0,0,0-.766.047,3.578,3.578,0,0,0-.446.414c-.124.132-.2.13-.314-.022a6.84,6.84,0,0,1-1.375-3.556,6.731,6.731,0,0,1,1.357-4.652c.12-.164.2-.194.347-.031a2.746,2.746,0,0,0,.406.383.7.7,0,0,0,.95-.054.729.729,0,0,0,.06-.975,3.384,3.384,0,0,0-.385-.4c-.13-.12-.138-.2.015-.319a6.936,6.936,0,0,1,3.152-1.334,4.81,4.81,0,0,1,.964-.062m1.8,4.267a.672.672,0,0,0-.215-.516,1.639,1.639,0,0,0-.614-.4.331.331,0,0,1-.244-.384c.013-.228.008-.458,0-.687a.715.715,0,0,0-.723-.7.722.722,0,0,0-.725.7,5.252,5.252,0,0,0,0,.636.411.411,0,0,1-.288.462,2.222,2.222,0,0,0-.433,3.713,2.753,2.753,0,0,0,1.553.548.772.772,0,0,1,.68.817.79.79,0,0,1-.8.736,1.015,1.015,0,0,1-.616-.266.737.737,0,0,0-1.01.091.751.751,0,0,0,.062,1.015,1.7,1.7,0,0,0,.606.412.337.337,0,0,1,.242.388,6.357,6.357,0,0,0,0,.687.724.724,0,0,0,1.445,0,5.066,5.066,0,0,0,0-.636.414.414,0,0,1,.287-.464,2.2,2.2,0,0,0,1.234-2.209,2.264,2.264,0,0,0-1.566-1.943,6.346,6.346,0,0,0-.8-.13.777.777,0,0,1-.651-.63.786.786,0,0,1,.293-.765.8.8,0,0,1,.908-.034c.093.059.174.137.269.191a.721.721,0,0,0,.751.009.658.658,0,0,0,.35-.641" transform="translate(-86.783 -142.617)" fill="#c20000"/>
  </g>
</svg>
