<svg id="Layer_1" data-name="Layer 1" xmlns="http://www.w3.org/2000/svg" viewBox="50 425 924 185">
<defs><style>.fhcls-1,.fhcls-3{fill:#d13b27;}.fhcls-1,.fhcls-4{fill-rule:evenodd;}.fhcls-2,.fhcls-4{fill:#373636;}</style></defs>
<title>FT Logo Final</title>
<g id="Rectangle_7" data-name="Rectangle 7"><polygon class="fhcls-1" points="65.13 430.35 65.13 576.3 88.45 576.41 94.5 593.65 98.58 593.65 98.58 464.83 212.1 464.5 212.1 430.35 65.13 430.35"/></g>
<polygon class="fhcls-2" points="128.99 515.55 168.52 515.55 168.52 545.98 128.99 545.98 128.99 576.41 211.09 576.41 211.09 494.25 128.99 494.25 128.99 515.55"/>
<polygon class="fhcls-1" points="252.46 517.76 271.77 517.76 271.77 484.48 299.56 484.48 299.56 468.82 271.77 468.82 271.77 447.79 302.01 447.79 302.01 432.07 252.46 432.07 252.46 517.76"/>
<polygon class="fhcls-1" points="337.27 432.07 317.97 432.07 317.97 517.76 369.01 517.76 369.01 502.1 337.27 502.1 337.27 432.07"/>
<path class="fhcls-1" d="M430,432.08H407.08l-31.2,85.68H396.8l6-19.06h30.48l6.1,19.06h21Zm-23,51.8,9.33-29a33.09,33.09,0,0,0,1.49-7.47h.48a38.1,38.1,0,0,0,1.43,7.71l9.21,28.8Z"/>
<rect class="fhcls-3" x="473.01" y="432.08" width="19.3" height="85.68"/>
<path class="fhcls-1" d="M569.35,492.42c-.83-1.31-1.76-2.66-2.78-4a43.47,43.47,0,0,0-3.19-3.85,25.79,25.79,0,0,0-3.47-3.14,12.2,12.2,0,0,0-3.7-1.94v-.24a31.26,31.26,0,0,0,7.91-3.47,24.35,24.35,0,0,0,6.07-5.26,23.12,23.12,0,0,0,3.89-6.84,24.24,24.24,0,0,0,1.37-8.27q0-23.31-31.2-23.3h-30.6v85.68H533V485h5.2a7.38,7.38,0,0,1,3.31.75,11.23,11.23,0,0,1,2.93,2.15,24.85,24.85,0,0,1,2.78,3.38c.92,1.31,1.87,2.81,2.87,4.48l13.33,22.05h22.17ZM551.3,466.79q-3.76,3.58-10,3.58H533V446.53h8.72q13.46,0,13.45,11.24A12,12,0,0,1,551.3,466.79Z"/>
<path class="fhcls-1" d="M643.89,477.6a33,33,0,0,0-7-5.46,73.51,73.51,0,0,0-9.23-4.57c-2.51-1-4.76-2-6.75-3a34.25,34.25,0,0,1-5.09-3,12.92,12.92,0,0,1-3.22-3.22,6.79,6.79,0,0,1-1.14-3.86,6.4,6.4,0,0,1,1-3.55,8.64,8.64,0,0,1,2.87-2.72,15,15,0,0,1,4.54-1.76,26.2,26.2,0,0,1,6-.63,37.83,37.83,0,0,1,5,.36,40,40,0,0,1,5.35,1.1,38.18,38.18,0,0,1,5.22,1.88,29.56,29.56,0,0,1,4.7,2.63V433.93a46.55,46.55,0,0,0-9.54-2.48,77.26,77.26,0,0,0-11.86-.81,54.91,54.91,0,0,0-12.91,1.47,32.8,32.8,0,0,0-10.73,4.57,22.81,22.81,0,0,0-7.32,7.91,23.25,23.25,0,0,0-2.69,11.5A22.28,22.28,0,0,0,596,470.67q4.94,6,15,10.22c2.63,1.08,5.08,2.13,7.35,3.17a40.27,40.27,0,0,1,5.89,3.22,15.42,15.42,0,0,1,3.92,3.65,7.46,7.46,0,0,1,1.43,4.48,6.88,6.88,0,0,1-.9,3.44,7.87,7.87,0,0,1-2.71,2.74,14.9,14.9,0,0,1-4.55,1.83,27.18,27.18,0,0,1-6.36.65,36.12,36.12,0,0,1-12.31-2.18,36.61,36.61,0,0,1-11.3-6.54v19.12a40.37,40.37,0,0,0,11,3.58,72.24,72.24,0,0,0,13.41,1.2A63.07,63.07,0,0,0,629,517.94a31.9,31.9,0,0,0,10.85-4.34,22,22,0,0,0,7.38-7.88,27.81,27.81,0,0,0,1.17-21.15A21.51,21.51,0,0,0,643.89,477.6Z"/>
<polygon class="fhcls-4" points="657.93 447.79 682.26 447.79 682.26 517.76 701.62 517.76 701.62 447.79 726.07 447.79 726.07 432.07 657.93 432.07 657.93 447.79"/>
<polygon class="fhcls-4" points="758.76 482.5 786.79 482.5 786.79 466.85 758.76 466.85 758.76 447.79 788.88 447.79 788.88 432.07 739.46 432.07 739.46 517.76 790.86 517.76 790.86 502.1 758.76 502.1 758.76 482.5"/>
<path class="fhcls-4" d="M813.78,443.43q-12.71,12.78-12.7,33.34,0,19.29,11.3,30.89t31,11.59q15.12,0,24.51-4.54V497.08a40.13,40.13,0,0,1-20.68,5.5q-11.84,0-18.83-7.38t-7-19.81q0-13,7.41-20.55t19.49-7.59a37.46,37.46,0,0,1,19.6,5.14V433.81q-8.61-3.17-21.16-3.17Q826.48,430.64,813.78,443.43Z"/>
<polygon class="fhcls-4" points="939.5 432.07 939.5 466.25 904 466.25 904 432.07 884.7 432.07 884.7 517.76 904 517.76 904 482.86 939.5 482.86 939.5 517.76 958.87 517.76 958.87 432.07 939.5 432.07"/>
<path class="fhcls-2" d="M253.89,576.5V548.65h1.92V576.5Z"/>
<path class="fhcls-2" d="M284.05,576.5,267.47,554a13.3,13.3,0,0,1-.9-1.36l-.25-.39h-.08c0,.34,0,.75,0,1.23v23h-1.92V548.65h1.48L282.31,571c.36.49.75,1.08,1.18,1.78h.1c-.07-.9-.1-1.68-.1-2.33V548.65h1.93V576.5Z"/>
<path class="fhcls-2" d="M313.66,576.5,297.07,554a11.7,11.7,0,0,1-.89-1.36l-.26-.39h-.08c0,.34,0,.75,0,1.23v23H294V548.65h1.48L311.91,571c.36.49.76,1.08,1.18,1.78h.1c-.06-.9-.1-1.68-.1-2.33V548.65H315V576.5Z"/>
<path class="fhcls-2" d="M335,577a12,12,0,0,1-9.41-3.93,14.73,14.73,0,0,1-3.5-10.19q0-6.66,3.6-10.68t9.84-4a11.74,11.74,0,0,1,9.12,3.86,14.51,14.51,0,0,1,3.48,10.11q0,6.92-3.57,10.88A12.24,12.24,0,0,1,335,577Zm.2-27.06a10.24,10.24,0,0,0-8,3.52,13.3,13.3,0,0,0-3.13,9.2q0,5.76,3,9.16a10,10,0,0,0,7.92,3.41,10.4,10.4,0,0,0,8.18-3.37q3-3.37,3-9.39t-2.94-9.22A10.19,10.19,0,0,0,335.22,549.93Z"/>
<path class="fhcls-2" d="M364.08,576.5h-1.44l-10.17-27.85h2.15l8.06,22.43a15.31,15.31,0,0,1,.72,2.65h.08a20.19,20.19,0,0,1,.8-2.69l8.56-22.39h2.06Z"/>
<path class="fhcls-2" d="M395.35,576.5l-3.18-8.66H380.09l-3.19,8.66h-2.11l10.5-27.85h1.83l10.39,27.85Zm-8.54-23.31a10.57,10.57,0,0,1-.35-1.14c-.09-.33-.19-.65-.29-1h-.08a19.15,19.15,0,0,1-.64,2.08l-4.68,12.91h10.74Z"/>
<path class="fhcls-2" d="M406.85,550.42V576.5H405V550.42h-8v-1.77h18v1.77Z"/>
<path class="fhcls-2" d="M421,576.5V548.65H423V576.5Z"/>
<path class="fhcls-2" d="M443,577a12,12,0,0,1-9.41-3.93,14.73,14.73,0,0,1-3.5-10.19q0-6.66,3.6-10.68t9.84-4a11.74,11.74,0,0,1,9.12,3.86,14.51,14.51,0,0,1,3.48,10.11q0,6.92-3.57,10.88A12.24,12.24,0,0,1,443,577Zm.2-27.06a10.24,10.24,0,0,0-8,3.52,13.3,13.3,0,0,0-3.13,9.2q0,5.76,3,9.16a10,10,0,0,0,7.92,3.41,10.4,10.4,0,0,0,8.18-3.37q3-3.37,3-9.39t-2.94-9.22A10.19,10.19,0,0,0,443.16,549.93Z"/>
<path class="fhcls-2" d="M482.88,576.5,466.29,554a13.16,13.16,0,0,1-.89-1.36l-.25-.39h-.08c0,.34,0,.75,0,1.23v23h-1.93V548.65h1.48L481.13,571c.36.49.76,1.08,1.19,1.78h.09c-.06-.9-.09-1.68-.09-2.33V548.65h1.92V576.5Z"/>
<path class="fhcls-2" d="M513.88,585.85V546.07h1.84v39.78Z"/>
<path class="fhcls-2" d="M552.92,550.42V576.5H551V550.42h-8v-1.77h18v1.77Z"/>
<path class="fhcls-2" d="M580.72,576.5l-3.19-8.66H565.45l-3.18,8.66h-2.12l10.51-27.85h1.82l10.39,27.85Zm-8.55-23.31a10.57,10.57,0,0,1-.35-1.14c-.09-.33-.19-.65-.29-1h-.08a19.15,19.15,0,0,1-.64,2.08l-4.68,12.91h10.74Z"/>
<path class="fhcls-2" d="M589,576.5V548.65h1.93v26.1h11.17v1.75Z"/>
<path class="fhcls-2" d="M608.61,576.5V548.65h13v1.77h-11.1v11.16h10.3v1.75h-10.3v11.42h11.74v1.75Z"/>
<path class="fhcls-2" d="M649.6,576.5,633,554a13.3,13.3,0,0,1-.9-1.36l-.25-.39h-.08c0,.34,0,.75,0,1.23v23H629.9V548.65h1.48L647.85,571c.36.49.76,1.08,1.18,1.78h.1c-.06-.9-.1-1.68-.1-2.33V548.65H651V576.5Z"/>
<path class="fhcls-2" d="M667.06,550.42V576.5h-1.91V550.42h-8v-1.77h18v1.77Z"/>
<path class="fhcls-2" d="M702.33,585.85V546.07h1.85v39.78Z"/>
<path class="fhcls-2" d="M733.82,576.5V548.65h13v1.77H735.74v11.16H746v1.75h-10.3v11.42h11.73v1.75Z"/>
<path class="fhcls-2" d="M770.2,576.5l-6.41-10.62a19.36,19.36,0,0,1-1-1.94h-.1a19.44,19.44,0,0,1-1.1,1.94L755,576.5h-2.31l8.8-14-8.28-13.81h2.31l6.24,10.47c.32.54.66,1.16,1,1.86h.08l1-1.86,6.19-10.47h2.24L764,562.42l8.55,14.08Z"/>
<path class="fhcls-2" d="M796.73,575.59a18.28,18.28,0,0,1-7.05,1.4,12.19,12.19,0,0,1-9.31-3.84,14,14,0,0,1-3.61-10q0-6.78,3.91-10.87a13.14,13.14,0,0,1,9.92-4.09,18.53,18.53,0,0,1,6.14,1v2a14.84,14.84,0,0,0-6.17-1.32,11.08,11.08,0,0,0-8.53,3.56q-3.28,3.56-3.28,9.46,0,5.68,3.13,9a10.54,10.54,0,0,0,8,3.29,15.53,15.53,0,0,0,6.89-1.49Z"/>
<path class="fhcls-2" d="M804.33,576.5V548.65h13v1.77H806.25v11.16h10.3v1.75h-10.3v11.42H818v1.75Z"/>
<path class="fhcls-2" d="M825.62,576.5V548.65h1.92v26.1h11.17v1.75Z"/>
<path class="fhcls-2" d="M845.23,576.5V548.65h1.93v26.1h11.17v1.75Z"/>
<path class="fhcls-2" d="M864.85,576.5V548.65h13v1.77H866.78v11.16h10.29v1.75H866.78v11.42h11.73v1.75Z"/>
<path class="fhcls-2" d="M905.84,576.5,889.25,554a11.7,11.7,0,0,1-.89-1.36l-.26-.39H888q0,.51,0,1.23v23h-1.92V548.65h1.48L904.09,571c.36.49.76,1.08,1.18,1.78h.1c-.06-.9-.1-1.68-.1-2.33V548.65h1.93V576.5Z"/>
<path class="fhcls-2" d="M934.26,575.59a18.37,18.37,0,0,1-7.06,1.4,12.19,12.19,0,0,1-9.31-3.84,14,14,0,0,1-3.6-10q0-6.78,3.9-10.87a13.15,13.15,0,0,1,9.93-4.09,18.62,18.62,0,0,1,6.14,1v2a14.92,14.92,0,0,0-6.18-1.32,11.08,11.08,0,0,0-8.53,3.56q-3.28,3.56-3.28,9.46,0,5.68,3.14,9a10.52,10.52,0,0,0,8,3.29,15.6,15.6,0,0,0,6.9-1.49Z"/>
<path class="fhcls-2" d="M941.85,576.5V548.65h13v1.77H943.77v11.16h10.3v1.75h-10.3v11.42h11.74v1.75Z"/></svg>