<svg id="Layer_1" data-name="Layer 1" xmlns="http://www.w3.org/2000/svg" viewBox="0 0 507.5 207.49"><defs><style>.cls-1{fill:#d13b27;}.cls-2{fill:#373636;}</style></defs><title>SSA Logo</title><polygon class="cls-1" points="135.85 114.62 135.85 100.62 181.85 78.62 195.85 85.62 135.85 114.62"/><polygon class="cls-1" points="166.85 115.62 182.85 108.62 182.85 127.62 121.85 158.62 121.85 172.62 105.85 165.62 105.85 151.62 166.85 120.62 166.85 115.62"/><polygon class="cls-2" points="114.85 136.62 94.85 146.62 94.85 160.62 78.85 153.62 78.85 139.62 105.85 125.62 114.85 136.62"/><polygon class="cls-1" points="178.85 44.62 192.85 50.62 120.85 86.62 120.85 139.62 105.85 133.62 105.85 80.62 178.85 44.62"/><polygon class="cls-2" points="151.85 31.62 165.85 37.62 93.85 73.62 93.85 126.62 78.85 120.62 78.85 67.62 151.85 31.62"/><path class="cls-2" d="M225.31,85.94V82.88a15.6,15.6,0,0,0,8.45,2.66c3,0,5.34-.63,6.91-1.89A6.35,6.35,0,0,0,243,78.39a6.92,6.92,0,0,0-1.58-4.76q-1.59-1.77-6.87-4.83c-3.93-2.29-6.43-4.21-7.47-5.76a9.25,9.25,0,0,1-1.57-5.34,9,9,0,0,1,3.19-7,12.27,12.27,0,0,1,8.53-2.87A21.87,21.87,0,0,1,244.19,49v2.82a17.5,17.5,0,0,0-7.29-1.54,9.26,9.26,0,0,0-6.27,2,6.45,6.45,0,0,0-2.31,5.09,6.79,6.79,0,0,0,1.58,4.74q1.59,1.76,6.84,4.79Q242.19,70,244,72.39a8.92,8.92,0,0,1,1.8,5.51,9.36,9.36,0,0,1-3.1,7.28Q239.59,88,233.92,88a20.61,20.61,0,0,1-4.62-.62A14.8,14.8,0,0,1,225.31,85.94Z"/><path class="cls-2" d="M256.05,87.32V48.49h18.14V51H258.73V66.52h14.35V69H258.73V84.89h16.36v2.43Z"/><path class="cls-2" d="M285.73,87.32V48.49h2.68v36.4H304v2.43Z"/><path class="cls-2" d="M315.77,51V66.8h14.35v2.43H315.77V87.32h-2.68V48.49h18.14V51Z"/><path class="cls-2" d="M225.31,152.5v-3.06a15.6,15.6,0,0,0,8.45,2.66c3,0,5.34-.63,6.91-1.89A6.35,6.35,0,0,0,243,145a6.92,6.92,0,0,0-1.58-4.76q-1.59-1.77-6.87-4.83c-3.93-2.29-6.43-4.21-7.47-5.76a9.26,9.26,0,0,1-1.57-5.35,9,9,0,0,1,3.19-7,12.27,12.27,0,0,1,8.53-2.87,21.59,21.59,0,0,1,6.94,1.16v2.82a17.51,17.51,0,0,0-7.29-1.55,9.26,9.26,0,0,0-6.27,2,6.43,6.43,0,0,0-2.31,5.09,6.79,6.79,0,0,0,1.58,4.74q1.59,1.76,6.84,4.79,5.44,3.09,7.24,5.49a8.9,8.9,0,0,1,1.8,5.51,9.36,9.36,0,0,1-3.1,7.28q-3.09,2.82-8.76,2.82a20.61,20.61,0,0,1-4.62-.62A15.15,15.15,0,0,1,225.31,152.5Z"/><path class="cls-2" d="M256.05,153.88V115.05h18.14v2.46H258.73v15.57h14.35v2.44H258.73v15.93h16.36v2.43Z"/><path class="cls-2" d="M305.61,153.88l-5.17-11.37a12.42,12.42,0,0,0-3.2-4.73,6.48,6.48,0,0,0-4-1.2h-4.82v17.3h-2.68V115.05h10.78q5.14,0,8.09,2.77a9.63,9.63,0,0,1,2.93,7.33,10.38,10.38,0,0,1-2.41,7,11.22,11.22,0,0,1-6.74,3.63v.11q2.3.91,4.5,5.61l5.76,12.37Zm-17.2-36.37v16.63h6.69a10.26,10.26,0,0,0,7.06-2.33,8.12,8.12,0,0,0,2.61-6.39,7.36,7.36,0,0,0-2.36-5.81c-1.57-1.4-3.81-2.1-6.74-2.1Z"/><path class="cls-2" d="M330.8,153.88h-2L314.6,115.05h3l11.24,31.28a21.66,21.66,0,0,1,1,3.68H330a27.76,27.76,0,0,1,1.11-3.74L343,115.05h2.87Z"/><path class="cls-2" d="M353.93,153.88V115.05h2.68v38.83Z"/><path class="cls-2" d="M394.33,152.61a25.43,25.43,0,0,1-9.83,1.95,17,17,0,0,1-13-5.35q-5-5.34-5-14,0-9.45,5.45-15.15a18.31,18.31,0,0,1,13.84-5.7,25.53,25.53,0,0,1,8.55,1.43v2.85a20.66,20.66,0,0,0-8.61-1.85,15.46,15.46,0,0,0-11.89,5q-4.57,5-4.57,13.19,0,7.94,4.37,12.53a14.65,14.65,0,0,0,11.09,4.59,21.54,21.54,0,0,0,9.61-2.09Z"/><path class="cls-2" d="M404.92,153.88V115.05h18.15v2.46H407.6v15.57H422v2.44H407.6v15.93H424v2.43Z"/><path class="cls-2" d="M433.39,152.5v-3.06a15.58,15.58,0,0,0,8.45,2.66q4.55,0,6.9-1.89A6.35,6.35,0,0,0,451.1,145a6.92,6.92,0,0,0-1.58-4.76q-1.59-1.77-6.87-4.83-5.91-3.44-7.48-5.76a9.33,9.33,0,0,1-1.57-5.35,9,9,0,0,1,3.2-7,12.25,12.25,0,0,1,8.53-2.87,21.53,21.53,0,0,1,6.93,1.16v2.82a17.43,17.43,0,0,0-7.28-1.55,9.22,9.22,0,0,0-6.27,2,6.44,6.44,0,0,0-2.32,5.09,6.79,6.79,0,0,0,1.59,4.74q1.57,1.76,6.84,4.79,5.43,3.09,7.24,5.49a8.9,8.9,0,0,1,1.8,5.51,9.36,9.36,0,0,1-3.1,7.28q-3.11,2.82-8.76,2.82a20.47,20.47,0,0,1-4.62-.62A15.15,15.15,0,0,1,433.39,152.5Z"/></svg>