<svg xmlns="http://www.w3.org/2000/svg" width="97.891" height="94.066" viewBox="0 0 97.891 94.066">
  <g id="team" transform="translate(0 -10.001)">
    <path id="Path_1320" data-name="Path 1320" d="M209.378,84.405a1.434,1.434,0,0,0,.927.34c.041,0,.081,0,.122-.005a1.434,1.434,0,0,0,.977-.508l9.149-10.916a1.434,1.434,0,0,0-2.2-1.842l-8.223,9.811L206.37,78.1a1.434,1.434,0,1,0-1.853,2.188Z" transform="translate(-165.004 -49.305)" fill="#d03827"/>
    <path id="Path_1321" data-name="Path 1321" d="M170.236,48.2a19.1,19.1,0,1,0-15.26-30.6,1.434,1.434,0,0,0,2.29,1.727,16.235,16.235,0,1,1-2.659,5.355,1.434,1.434,0,0,0-2.76-.779A19.093,19.093,0,0,0,170.236,48.2Z" transform="translate(-122.234 0)" fill="#d03827"/>
    <path id="Path_1322" data-name="Path 1322" d="M92.06,248.083c-.476-.271-.967-.551-1.472-.853l-3.749-2.248a14.184,14.184,0,0,0,3.564-6.357,8.89,8.89,0,0,0,.237-1.986v-9.491c0-4.317-3.248-8.214-8.279-9.925-4.4-1.5-8.762-.8-11.112,1.707-2.409.424-5.787,2.334-5.673,9.732,0,.065,0,.119,0,.161v7.816a8.8,8.8,0,0,0,.237,1.981,14.154,14.154,0,0,0,3.564,6.365l-3.686,2.21c-.027.013-.054.031-.08.046-.5.3-.985.576-1.455.843a16.773,16.773,0,0,0-3.841,2.669l-2.642-1.585a14.19,14.19,0,0,0,3.566-6.357,8.975,8.975,0,0,0,.231-1.988V231.33c0-4.315-3.247-8.21-8.272-9.921-4.4-1.5-8.764-.8-11.113,1.7-2.411.423-5.79,2.333-5.673,9.73,0,.067,0,.121,0,.163v7.818a9.31,9.31,0,0,0,.231,1.988,14.176,14.176,0,0,0,3.568,6.357l-2.638,1.585a16.8,16.8,0,0,0-3.845-2.671c-.476-.271-.967-.549-1.47-.851l-.038-.023-.011-.007-3.7-2.217a14.175,14.175,0,0,0,3.566-6.359,8.841,8.841,0,0,0,.232-1.986v-9.491c0-4.316-3.247-8.211-8.273-9.923-4.4-1.5-8.766-.8-11.118,1.7-2.409.423-5.785,2.334-5.668,9.729,0,.067,0,.122,0,.163v7.817a8.837,8.837,0,0,0,.231,1.982,14.185,14.185,0,0,0,3.566,6.362L7.3,247.23c-.5.3-.993.58-1.468.85-3,1.7-5.829,3.313-5.829,8v8.424a2.44,2.44,0,0,0,.628,1.772,2.223,2.223,0,0,0,1.654.572l.206,0,.215,0h26.46v1.843a2.44,2.44,0,0,0,.631,1.776,2.223,2.223,0,0,0,1.654.574l.206,0c.067,0,.138,0,.212,0h1.652a1.434,1.434,0,1,0,0-2.868H32.03v-7.9c0-2.9,1.266-3.734,4.384-5.5.048-.027.1-.055.145-.082.2-.113.4-.229.606-.348l2.392,1.549,2.464,1.6.063.036c.172.1.323.2.47.3a2.846,2.846,0,0,0,1.568.6,1.873,1.873,0,0,0,.912-.241l.2.772L42.437,265l-.006.013a1.48,1.48,0,0,0,.1,1.487l.977,1.663H40.141a1.434,1.434,0,1,0,0,2.868h25.88c.075,0,.145,0,.212,0l.206,0a2.236,2.236,0,0,0,1.66-.574,2.445,2.445,0,0,0,.629-1.776v-1.843H95.189l.212,0c.065,0,.134,0,.206,0a2.223,2.223,0,0,0,1.654-.574,2.436,2.436,0,0,0,.629-1.77v-8.424c0-4.688-2.831-6.3-5.831-8Zm-63.248.423-3.645,2.358c-.15.089-.284.176-.4.255l-.784-.83c-.013-.015-.028-.029-.041-.044l-1.306-1.384q.211-.071.429-.152a13.533,13.533,0,0,0,3.191-1.737Zm-15.036-26.8a1.434,1.434,0,0,0,1.01-.553c1.456-1.889,4.878-2.388,8.324-1.214,2.92.995,6.329,3.479,6.329,7.208v3.832h-.6c-1.413,0-2.326-.788-3.7-2.073-1.545-1.447-3.467-3.247-6.805-3.247H15.763c-3.12,0-3.641,2.535-3.952,4.05-.358,1.742-.528,2.083-1.669,2.083h-.024v-2.97c0-.053,0-.123,0-.208-.069-4.364,1.162-6.687,3.659-6.907Zm-3.5,16.273a5.968,5.968,0,0,1-.158-1.34V234.66h.024c3.579,0,4.164-2.845,4.478-4.374.362-1.759.511-1.759,1.143-1.759h2.569c2.2,0,3.428,1.146,4.845,2.472s3.04,2.848,5.659,2.848h.6v2.792a5.974,5.974,0,0,1-.159,1.344,12.334,12.334,0,0,1-7.223,8.039,6.43,6.43,0,0,1-2.278.472,6.434,6.434,0,0,1-2.28-.473,12.333,12.333,0,0,1-7.222-8.042Zm11.038,13.666-.466,1.822H18.7l-.463-1.815,1.543-1.635Zm-8.009-4.673a13.527,13.527,0,0,0,3.189,1.736q.219.082.431.153L14.8,251.118c-.119-.08-.254-.166-.405-.255l-3.644-2.357Zm.038,15.317.994,1.687H2.868v-7.895c0-2.9,1.264-3.739,4.379-5.509.246-.14.5-.282.752-.43l4.861,3.144.057.035c.172.1.323.2.47.3a2.852,2.852,0,0,0,1.577.612,1.855,1.855,0,0,0,.91-.245l.2.768-2.794,6.054A1.484,1.484,0,0,0,13.345,262.29Zm8.536,1.687H17.667l-1.509-2.562,2.344-5.079h2.544l2.344,5.079Zm7.282-3.713v3.713H25.21l.994-1.687a1.484,1.484,0,0,0,.07-1.473l-2.794-6.054.2-.773a1.86,1.86,0,0,0,.92.25,2.86,2.86,0,0,0,1.583-.616c.145-.1.3-.2.465-.3l.054-.033,4.862-3.144.751.43a21.083,21.083,0,0,1,2.681,1.7C31.994,253.971,29.163,255.581,29.163,260.264Zm57.976-11.757L83.5,250.863c-.153.09-.289.178-.409.258l-.784-.832c-.015-.017-.034-.036-.052-.054l-1.3-1.375c.141-.046.283-.1.428-.151a13.611,13.611,0,0,0,3.191-1.738Zm-15.032-26.8a1.433,1.433,0,0,0,1.011-.553c1.453-1.887,4.874-2.388,8.319-1.216,2.921,1,6.334,3.48,6.334,7.21v3.832h-.608c-1.413,0-2.325-.786-3.7-2.071-1.545-1.447-3.466-3.248-6.808-3.248h-2.57c-3.12,0-3.64,2.535-3.95,4.051-.358,1.74-.526,2.08-1.663,2.08h-.031v-2.969c0-.052,0-.122,0-.206-.067-4.365,1.164-6.69,3.663-6.91Zm-3.5,16.274a5.98,5.98,0,0,1-.164-1.342v-1.979h.031c3.575,0,4.158-2.845,4.472-4.373.361-1.759.51-1.759,1.141-1.759h2.57c2.208,0,3.432,1.145,4.847,2.472s3.038,2.847,5.657,2.847h.608v2.791a6.039,6.039,0,0,1-.164,1.346,12.332,12.332,0,0,1-7.225,8.04,5.727,5.727,0,0,1-4.55,0,12.316,12.316,0,0,1-7.221-8.042Zm11.034,13.667-.463,1.82H77.026l-.463-1.814,1.543-1.635Zm-8.007-4.673a13.545,13.545,0,0,0,3.189,1.734c.145.054.289.105.43.153l-2.132,2.256c-.12-.078-.254-.164-.405-.254l-3.64-2.357Zm-13.659,5.719-3.638,2.357c-.153.088-.289.176-.409.254L51.8,253.048c.141-.048.283-.1.428-.151a13.532,13.532,0,0,0,3.193-1.742Zm-15.034-26.8a1.434,1.434,0,0,0,1.01-.553c1.454-1.887,4.874-2.385,8.32-1.212,2.919.994,6.328,3.478,6.328,7.206v3.837H58c-1.413,0-2.324-.787-3.695-2.072-1.544-1.447-3.467-3.248-6.808-3.248H44.927c-3.12,0-3.641,2.536-3.951,4.051-.357,1.74-.526,2.081-1.663,2.081h-.029V233c0-.053,0-.123,0-.208-.069-4.364,1.163-6.687,3.664-6.907Zm-3.5,16.294a6.46,6.46,0,0,1-.163-1.361v-1.974h.029c3.576,0,4.159-2.845,4.473-4.373.361-1.76.511-1.76,1.142-1.76H47.5c2.208,0,3.431,1.146,4.848,2.473s3.038,2.847,5.656,2.847h.6v2.786a6.077,6.077,0,0,1-.159,1.348,12.36,12.36,0,0,1-7.219,8.04,5.719,5.719,0,0,1-4.56,0,12.349,12.349,0,0,1-7.22-8.026ZM50.481,255.83l-.463,1.82H47.861l-.461-1.814,1.543-1.633Zm-6.524-.528c-.119-.078-.252-.164-.405-.252l-3.638-2.357,2.556-1.537a13.67,13.67,0,0,0,3.2,1.744c.143.052.285.1.424.147Zm7.088,12.862H46.831L45.322,265.6l2.342-5.078h2.551l2.34,5.082Zm14.816,0H54.373l.994-1.686a1.5,1.5,0,0,0,.075-1.465L55.436,265l-2.79-6.055.2-.769a1.864,1.864,0,0,0,.916.249,2.867,2.867,0,0,0,1.575-.608c.147-.1.3-.2.47-.3l.063-.036,4.856-3.145c.2.119.405.233.6.346l.155.088c3.115,1.769,4.378,2.6,4.378,5.5Zm5.829-5.851.979,1.663h-3.94v-3.713c0-4.682-2.832-6.29-5.829-7.994a0,0,0,0,1,0,0,20.811,20.811,0,0,1,2.677-1.692c.247-.141.5-.283.755-.432l4.858,3.143a.551.551,0,0,0,.055.036c.172.1.323.2.47.3a2.861,2.861,0,0,0,1.579.6,1.87,1.87,0,0,0,.906-.239l.2.772L71.6,260.816s0,0,0,0a1.468,1.468,0,0,0,.09,1.493Zm8.518,1.663H76l-1.509-2.566,2.342-5.076h2.549l2.342,5.074Zm14.816,0H83.536l.992-1.686a1.476,1.476,0,0,0,.115-1.386c-.011-.029-.025-.059-.038-.088l-2.8-6.055.2-.771a1.866,1.866,0,0,0,.918.249,2.867,2.867,0,0,0,1.581-.614c.145-.1.3-.2.468-.3.019-.011.038-.023.057-.036l4.856-3.143c.256.149.509.291.755.432,3.116,1.769,4.38,2.6,4.38,5.506Z" transform="translate(0 -166.97)" fill="#d03827"/>
  </g>
</svg>
