<svg xmlns="http://www.w3.org/2000/svg" width="18.219" height="14.235" viewBox="0 0 18.219 14.235">
  <path id="Icon_awesome-exchange-alt" data-name="Icon awesome-exchange-alt" d="M0,7.922V7.353A.854.854,0,0,1,.854,6.5h12.81V4.791a.855.855,0,0,1,1.458-.6l2.847,2.847a.854.854,0,0,1,0,1.208l-2.847,2.847a.855.855,0,0,1-1.458-.6V8.776H.854A.854.854,0,0,1,0,7.922Zm17.365,5.409H4.555V11.623a.855.855,0,0,0-1.458-.6L.25,13.865a.854.854,0,0,0,0,1.208L3.1,17.92a.855.855,0,0,0,1.458-.6V15.608h12.81a.854.854,0,0,0,.854-.854v-.569A.854.854,0,0,0,17.365,13.331Z" transform="translate(0 -3.936)" fill="#757575"/>
</svg>
