<svg xmlns="http://www.w3.org/2000/svg" width="36.62" height="36.217" viewBox="0 0 36.62 36.217">
  <g id="Group_3910" data-name="Group 3910" transform="translate(0 0)">
    <g id="Group_3913" data-name="Group 3913" transform="translate(-0.001 0)">
      <path id="lock_FILL1_wght400_GRAD0_opsz48" d="M162.566,446.174a2.447,2.447,0,0,1-1.813-.769,2.547,2.547,0,0,1-.754-1.849V424.618a2.547,2.547,0,0,1,.754-1.849,2.447,2.447,0,0,1,1.813-.769h19.248c.041.156-.1.379,0,0h2.994a2.447,2.447,0,0,1,1.813.769,2.547,2.547,0,0,1,.754,1.849v18.938a2.547,2.547,0,0,1-.754,1.849,2.447,2.447,0,0,1-1.813.769Zm11.128-8.727a3.284,3.284,0,0,0,3.286-3.273,3.457,3.457,0,0,0-.97-2.378,3.068,3.068,0,0,0-4.655,0,3.5,3.5,0,0,0-.962,2.4,3.112,3.112,0,0,0,.97,2.291A3.2,3.2,0,0,0,173.695,437.447Z" transform="translate(-160 -409.957)" fill="#d03827"/>
      <path id="lock_FILL1_wght400_GRAD0_opsz48-2" data-name="lock_FILL1_wght400_GRAD0_opsz48" d="M281.185,148.48v-4.189a8.291,8.291,0,1,1,16.582,0v4.189Zm2.618,0h11.345v-4.189a5.673,5.673,0,1,0-11.345,0Z" transform="translate(-261.549 -136)" fill="#d03827"/>
    </g>
  </g>
</svg>
