<svg xmlns="http://www.w3.org/2000/svg" width="107.71" height="112.934" viewBox="0 0 107.71 112.934">
  <g id="Icon_ionic-ios-people" data-name="Icon ionic-ios-people" transform="translate(-8.191 -7.748)">
    <path id="Path_656" data-name="Path 656" d="M98.214,94.636C93.879,93.088,86.8,93.01,83.662,91.811c-2.167-.851-5.612-1.78-6.734-3.135S75.8,77.645,75.8,77.645a17.818,17.818,0,0,0,3.832-5.418c1.122-2.825,1.858-10.643,1.858-10.643s2.554,1.084,3.561-4.025c.851-4.412,2.477-6.734,2.051-9.985-.464-3.251-2.245-2.477-2.245-2.477s2.245-3.29,2.245-14.475c0-11.533-8.708-22.873-25-22.873-16.255,0-25.041,11.379-25.041,22.873,0,11.185,2.206,14.475,2.206,14.475s-1.819-.774-2.245,2.477c-.464,3.251,1.161,5.573,2.051,9.985,1.006,5.147,3.561,4.025,3.561,4.025s.735,7.779,1.858,10.643a17.818,17.818,0,0,0,3.832,5.418s0,9.676-1.122,11.03-4.567,2.283-6.734,3.1c-3.1,1.2-10.179,1.355-14.552,2.9A27.314,27.314,0,0,0,8.191,120.683H115.9A27.26,27.26,0,0,0,98.214,94.636Z" transform="translate(0 0)" fill="#e2e2e2"/>
  </g>
</svg>
