<svg xmlns="http://www.w3.org/2000/svg" xmlns:xlink="http://www.w3.org/1999/xlink" width="37.289" height="37.289" viewBox="0 0 37.289 37.289">
  <defs>
    <filter id="Path_633" x="0" y="0" width="37.289" height="37.289" filterUnits="userSpaceOnUse">
      <feOffset dx="1" dy="1" input="SourceAlpha"/>
      <feGaussianBlur stdDeviation="2.5" result="blur"/>
      <feFlood flood-color="#090909" flood-opacity="0.102"/>
      <feComposite operator="in" in2="blur"/>
      <feComposite in="SourceGraphic"/>
    </filter>
    <clipPath id="clip-path">
      <rect id="Rectangle_2844" data-name="Rectangle 2844" width="12.387" height="12.377" fill="#d03827"/>
    </clipPath>
  </defs>
  <g id="Group_3801" data-name="Group 3801" transform="translate(-1511.335 -246.521)">
    <g id="Group_3503" data-name="Group 3503" transform="translate(873.024 23.81)">
      <g id="Group_3502" data-name="Group 3502" transform="translate(-975.689 111.531)">
        <g id="Group_3440" data-name="Group 3440" transform="translate(1620.5 117.68)">
          <g id="Group_3158" data-name="Group 3158" transform="translate(0 0)">
            <g transform="matrix(1, 0, 0, 1, -6.5, -6.5)" filter="url(#Path_633)">
              <path id="Path_633-2" data-name="Path 633" d="M11.145,0A11.145,11.145,0,1,1,0,11.145,11.145,11.145,0,0,1,11.145,0Z" transform="translate(6.5 6.5)" fill="#fff"/>
            </g>
          </g>
        </g>
      </g>
    </g>
    <g id="Group_3800" data-name="Group 3800" transform="translate(1522.413 258.202)">
      <g id="Group_3799" data-name="Group 3799" clip-path="url(#clip-path)">
        <path id="Path_746" data-name="Path 746" d="M5.933,11.142q-2.017,0-4.034,0A1.867,1.867,0,0,1,.04,9.612,2.1,2.1,0,0,1,0,9.21Q0,6.188,0,3.166A1.854,1.854,0,0,1,.638,1.718c.079-.07.094-.111.008-.188C.5,1.4.364,1.254.225,1.113A.627.627,0,0,1,.2.187a.627.627,0,0,1,.926.038Q3.965,3.066,6.807,5.909q2.663,2.663,5.327,5.326a.662.662,0,0,1,.235.6.607.607,0,0,1-.426.5.592.592,0,0,1-.639-.15q-.471-.459-.93-.931a.369.369,0,0,0-.292-.119q-2.075.005-4.15,0M1.3,7.687a.224.224,0,0,0,.047-.027c.17-.164.334-.334.509-.493a1.855,1.855,0,0,1,2.554.052c.148.145.3.29.439.441.07.075.12.088.2.007q.377-.39.767-.767c.08-.077.07-.126,0-.2Q5.29,6.184,4.773,5.657c-.078-.08-.113-.075-.186.008a1.48,1.48,0,0,1-1.4.518A1.481,1.481,0,0,1,1.924,5.074a1.481,1.481,0,0,1,.473-1.6c.071-.065.094-.105.014-.182-.229-.221-.454-.446-.675-.675a.125.125,0,0,0-.188-.015.608.608,0,0,0-.27.557c0,1.461,0,2.921,0,4.382,0,.046-.016.1.025.143" transform="translate(0 0)" fill="#d03827"/>
        <path id="Path_747" data-name="Path 747" d="M100.724,31.764h3.2a1.882,1.882,0,0,1,1.928,1.918q.005,3.029,0,6.059a2.2,2.2,0,0,1-.061.5c-.02.084-.06.106-.127.037-.02-.021-.041-.041-.062-.061q-2.045-2.045-4.089-4.09c-.039-.039-.116-.077-.1-.133s.11-.036.168-.037a1.931,1.931,0,0,1,1.315.475q.775.65,1.555,1.3c.028.023.052.069.1.046s.021-.061.021-.093c0-1.359,0-2.718,0-4.078a.588.588,0,0,0-.591-.575c-.057,0-.116,0-.173,0q-2.61,0-5.22,0a.388.388,0,0,1-.3-.128c-.313-.321-.633-.635-.948-.954-.044-.045-.136-.083-.105-.154s.114-.027.173-.027q1.663,0,3.326,0" transform="translate(-93.462 -30.53)" fill="#d03827"/>
      </g>
    </g>
  </g>
</svg>
