<svg xmlns="http://www.w3.org/2000/svg" width="30.943" height="26.245" viewBox="0 0 30.943 26.245">
  <g id="Group_148" data-name="Group 148" transform="translate(-660.415 -421.53)">
    <path id="Path_288" data-name="Path 288" d="M660.415,439.6a9.119,9.119,0,0,1,.391-1.254,4.332,4.332,0,0,1,3.811-2.641c.86-.063,1.729-.011,2.611-.011a.547.547,0,0,1,0,.167,7.44,7.44,0,0,0-.33,2.5c0,2.586,0,5.172,0,7.758,0,.539.048,1.079.075,1.635a.336.336,0,0,1-.089.012c-1.278,0-2.556.02-3.834-.009a2.628,2.628,0,0,1-2.584-2.155,1.077,1.077,0,0,0-.053-.139Z" fill="#363636"/>
    <path id="Path_289" data-name="Path 289" d="M675.888,447.77h-6.1c-.79,0-1.1-.306-1.1-1.089,0-3.031-.01-6.061.015-9.092a4.435,4.435,0,0,1,3.622-4.142,5.649,5.649,0,0,1,.84-.073c1.913,0,3.826-.014,5.739.013a4.446,4.446,0,0,1,4.107,3.628,6.577,6.577,0,0,1,.072.931c.005,2.93,0,5.86.006,8.79a.889.889,0,0,1-.383.863,1.477,1.477,0,0,1-.685.165C679.976,447.775,677.932,447.77,675.888,447.77Z" fill="#363636"/>
    <path id="Path_290" data-name="Path 290" d="M675.9,421.53a5.369,5.369,0,1,1-5.383,5.332A5.368,5.368,0,0,1,675.9,421.53Z" fill="#363636"/>
    <path id="Path_291" data-name="Path 291" d="M684.795,447.763c.027-.555.073-1.085.074-1.614.008-2.567,0-5.134,0-7.7a7.638,7.638,0,0,0-.332-2.589.842.842,0,0,1-.014-.185c1.33.082,2.665-.173,3.955.31a4.48,4.48,0,0,1,2.868,4.065q.018,2.506,0,5.014a2.634,2.634,0,0,1-2.6,2.693C687.42,447.79,686.092,447.763,684.795,447.763Z" fill="#363636"/>
    <path id="Path_292" data-name="Path 292" d="M666.465,426.533a4.022,4.022,0,1,1-4.04,4A4.028,4.028,0,0,1,666.465,426.533Z" fill="#363636"/>
    <path id="Path_293" data-name="Path 293" d="M685.312,426.533a4.022,4.022,0,1,1-4.018,4.014A4.038,4.038,0,0,1,685.312,426.533Z" fill="#363636"/>
  </g>
</svg>
