<svg xmlns="http://www.w3.org/2000/svg" width="52" height="42.465" viewBox="0 0 52 42.465">
  <g id="gift-card" transform="translate(0.008 -0.485)">
    <path id="Path_1300" data-name="Path 1300" d="M383.984,104.473h1.733v3.467h-1.733Zm0,0" transform="translate(-342.392 -92.723)" fill="#d03827"/>
    <path id="Path_1301" data-name="Path 1301" d="M351.984,104.473h1.733v3.467h-1.733Zm0,0" transform="translate(-313.859 -92.723)" fill="#d03827"/>
    <path id="Path_1302" data-name="Path 1302" d="M319.984,104.473h1.733v3.467h-1.733Zm0,0" transform="translate(-285.326 -92.723)" fill="#d03827"/>
    <path id="Path_1303" data-name="Path 1303" d="M287.984,104.473h1.733v3.467h-1.733Zm0,0" transform="translate(-256.792 -92.723)" fill="#d03827"/>
    <path id="Path_1304" data-name="Path 1304" d="M383.984,256.473h1.733v1.733h-1.733Zm0,0" transform="translate(-342.392 -228.256)" fill="#d03827"/>
    <path id="Path_1305" data-name="Path 1305" d="M351.984,256.473h1.733v1.733h-1.733Zm0,0" transform="translate(-313.859 -228.256)" fill="#d03827"/>
    <path id="Path_1306" data-name="Path 1306" d="M319.984,256.473h1.733v1.733h-1.733Zm0,0" transform="translate(-285.326 -228.256)" fill="#d03827"/>
    <path id="Path_1307" data-name="Path 1307" d="M287.984,256.473h1.733v1.733h-1.733Zm0,0" transform="translate(-256.792 -228.256)" fill="#d03827"/>
    <path id="Path_1308" data-name="Path 1308" d="M2.591,25.552v5.265a4.339,4.339,0,0,0,4.333,4.333H22.593l15.427,7.4A4.031,4.031,0,0,0,43.4,40.647l2.68-5.633a4.333,4.333,0,0,0,3.31-4.2v-2.76L51.6,23.424a4.058,4.058,0,0,0-1.9-5.4l-.306-.146V11.75a4.339,4.339,0,0,0-4.333-4.333H27.586L13.966.88A4.031,4.031,0,0,0,8.583,2.787L6.352,7.475a4.326,4.326,0,0,0-3.76,4.275v3.625L.386,20.009a4.059,4.059,0,0,0,1.9,5.4Zm46.8-5.675a2.32,2.32,0,0,1,.64,2.8l-.64,1.344ZM41.835,39.9a2.3,2.3,0,0,1-3.067,1.09L26.6,35.151H44.1Zm5.824-9.08a2.6,2.6,0,0,1-2.6,2.6h-28.6V23.395a10.33,10.33,0,0,0,7.175,2.885V24.547a8.61,8.61,0,0,1-5.971-2.4h30ZM17.266,19.879l1.705-4.286a1.97,1.97,0,1,1,2.557,2.57ZM45.059,9.15a2.6,2.6,0,0,1,2.6,2.6v8.667H20.577l1.6-.642a3.709,3.709,0,1,0-4.812-4.825l-.9,2.272V9.15ZM10.149,3.533a2.294,2.294,0,0,1,3.067-1.09L23.581,7.417H8.3ZM4.325,11.75a2.6,2.6,0,0,1,2.6-2.6h7.8v7.468l-.664-1.667A3.7,3.7,0,1,0,9.25,19.775l1.6.642H4.325Zm9.834,8.129L9.9,18.163a1.976,1.976,0,1,1,2.555-2.574ZM4.325,22.15h9.437a8.611,8.611,0,0,1-5.971,2.4V26.28a10.325,10.325,0,0,0,6.933-2.665v9.8h-7.8a2.6,2.6,0,0,1-2.6-2.6Zm-2.373-1.4.639-1.345v4.147A2.32,2.32,0,0,1,1.952,20.755Zm0,0" transform="translate(0 0)" fill="#d03827"/>
  </g>
</svg>
