<?xml version="1.0" standalone="no"?>
<!DOCTYPE svg PUBLIC "-//W3C//DTD SVG 20010904//EN"
 "http://www.w3.org/TR/2001/REC-SVG-20010904/DTD/svg10.dtd">
<svg version="1.0" xmlns="http://www.w3.org/2000/svg"
 width="158.000000pt" height="158.000000pt" viewBox="0 0 158.000000 158.000000"
 preserveAspectRatio="xMidYMid meet">
<metadata>
Created by potrace 1.11, written by Peter Selinger 2001-2013
</metadata>
<g transform="translate(0.000000,158.000000) scale(0.100000,-0.100000)"
fill="#000000" stroke="none">
<path d="M685 1374 c-148 -74 -308 -154 -355 -178 l-85 -43 0 -249 c-1 -137 1
-257 3 -266 2 -10 31 -27 74 -42 38 -14 70 -26 71 -26 1 0 2 118 2 263 l0 262
359 180 358 180 -58 27 c-33 14 -68 27 -79 27 -11 0 -141 -61 -290 -135z"/>
<path d="M869 1202 l-355 -177 1 -219 c0 -150 -3 -222 -11 -230 -6 -6 -67 -40
-135 -75 l-125 -65 1 -68 c1 -37 3 -69 6 -71 8 -6 124 -56 138 -59 12 -2 15
11 15 62 l1 65 90 48 c87 45 110 50 155 33 13 -6 15 26 15 256 l0 263 358 180
359 180 -59 27 c-32 14 -67 26 -78 26 -11 1 -180 -79 -376 -176z"/>
<path d="M1090 959 c-91 -43 -190 -92 -220 -107 l-55 -27 -1 -67 c0 -38 2 -68
4 -68 2 0 88 41 191 90 102 50 235 115 296 144 l110 53 -66 31 c-37 18 -73 32
-80 31 -8 0 -88 -36 -179 -80z"/>
<path d="M1195 708 c-59 -25 -71 -35 -73 -56 -1 -14 -3 -26 -5 -27 -1 -1 -132
-69 -292 -150 -159 -81 -295 -152 -301 -156 -11 -9 -14 -133 -4 -142 3 -3 37
-18 77 -35 48 -21 73 -27 75 -19 3 7 4 37 3 68 l-1 55 303 155 c166 85 303
159 304 164 5 59 1 169 -7 171 -5 2 -41 -11 -79 -28z"/>
</g>
</svg>
